<?xml version="1.0" encoding="utf-8"?>
<!-- Generator: Adobe Illustrator 16.0.0, SVG Export Plug-In . SVG Version: 6.00 Build 0)  -->
<!DOCTYPE svg PUBLIC "-//W3C//DTD SVG 1.1//EN" "http://www.w3.org/Graphics/SVG/1.1/DTD/svg11.dtd">
<svg version="1.1" xmlns="http://www.w3.org/2000/svg" xmlns:xlink="http://www.w3.org/1999/xlink" x="0px" y="0px" width="400px"
	 height="400px" viewBox="512.5 768.5 400 400" enable-background="new 512.5 768.5 400 400" xml:space="preserve">
<g id="Portrait">
	<g id="borders">
		<g id="outer">
			<path fill="#FFFFFF" d="M712.5,1164.5c-26.434,0-52.107-5.189-76.309-15.425c-23.346-9.875-44.301-24-62.285-41.982
				c-17.981-17.983-32.106-38.939-41.982-62.285c-10.234-24.198-15.424-49.872-15.424-76.309c0-26.436,5.189-52.11,15.426-76.309
				c9.874-23.346,23.998-44.301,41.98-62.284c17.983-17.981,38.938-32.106,62.285-41.981c24.2-10.235,49.874-15.426,76.309-15.426
				s52.108,5.19,76.309,15.426c23.347,9.875,44.302,24,62.284,41.981c17.982,17.983,32.107,38.938,41.982,62.284
				c10.235,24.198,15.425,49.873,15.425,76.309c0,26.437-5.189,52.11-15.425,76.309c-9.875,23.346-24,44.302-41.982,62.285
				c-17.983,17.982-38.938,32.107-62.284,41.982C764.607,1159.311,738.934,1164.5,712.5,1164.5z"/>
			<path d="M712.5,776.499c25.896,0,51.046,5.084,74.751,15.11c22.869,9.673,43.397,23.51,61.013,41.126
				c17.617,17.616,31.454,38.145,41.127,61.013c10.025,23.704,15.109,48.854,15.109,74.751c0,25.898-5.084,51.048-15.109,74.751
				c-9.673,22.869-23.51,43.396-41.127,61.014c-17.616,17.617-38.145,31.454-61.013,41.127
				c-23.706,10.026-48.855,15.109-74.751,15.109s-51.045-5.083-74.751-15.109c-22.868-9.673-43.396-23.51-61.014-41.126
				c-17.616-17.618-31.454-38.146-41.127-61.015c-10.025-23.703-15.108-48.854-15.108-74.751s5.084-51.047,15.109-74.751
				c9.673-22.868,23.509-43.396,41.125-61.013c17.617-17.616,38.146-31.453,61.015-41.126
				C661.454,781.583,686.604,776.499,712.5,776.499 M712.5,768.499c-26.975,0-53.172,5.297-77.867,15.742
				c-23.822,10.076-45.205,24.488-63.555,42.837c-18.348,18.349-32.761,39.731-42.837,63.554
				c-10.445,24.695-15.741,50.894-15.741,77.867c0,26.975,5.296,53.173,15.74,77.867c10.077,23.823,24.49,45.206,42.838,63.555
				c18.35,18.349,39.732,32.762,63.555,42.838c24.695,10.444,50.893,15.741,77.867,15.741c26.974,0,53.172-5.297,77.867-15.741
				c23.822-10.076,45.205-24.489,63.554-42.838s32.762-39.731,42.838-63.555c10.445-24.694,15.741-50.893,15.741-77.867
				c0-26.974-5.296-53.172-15.741-77.867c-10.076-23.822-24.489-45.205-42.838-63.554s-39.731-32.761-63.554-42.837
				C765.672,773.796,739.474,768.499,712.5,768.499L712.5,768.499z"/>
		</g>
		<path id="inner" d="M712.5,837.358c35.029,0,67.962,13.641,92.731,38.41s38.41,57.701,38.41,92.73s-13.641,67.963-38.41,92.731
			c-24.77,24.77-57.702,38.411-92.731,38.411s-67.963-13.642-92.732-38.411c-24.769-24.769-38.41-57.702-38.41-92.731
			s13.642-67.962,38.41-92.73C644.537,850.999,677.471,837.358,712.5,837.358 M712.5,827.358
			c-77.951,0-141.143,63.19-141.143,141.141c0,77.951,63.191,141.143,141.143,141.143c77.95,0,141.142-63.191,141.142-141.143
			C853.642,890.549,790.45,827.358,712.5,827.358L712.5,827.358z"/>
	</g>
	<g id="portrait">
		<defs>
			<circle id="mask" cx="712.5" cy="968.499" r="141.142"/>
		</defs>
		<clipPath id="mask_1_">
			<use xlink:href="#mask"  overflow="visible"/>
		</clipPath>
		<g id="teresko" clip-path="url(#mask_1_)">
			<path d="M548.592,810.487c-0.171,1.941-0.077,3.861,0.282,5.758c3.599,0-0.165-11.367-0.282-11.516
				C548.592,806.647,548.637,808.57,548.592,810.487z"/>
			<path d="M574.746,929.023c-0.059,1.501,2.424,12.925,3.941,6.858c0.385-1.799,4.964-0.883,4.964-3.583
				c-0.479-0.463-1.077-0.677-1.792-0.64c0-0.605,6.161-3.385,4.99-4.555c-0.26-0.261-2.264,1.996-2.098,1.996
				c-1.934,0-0.428-19.449,3.787-19.449c1.292,0,6.116-5.234,6.116-7.268c0-0.636-5.702,5.495-6.27,6.295
				c-6.405-0.455,1.587-9.264,1.407-9.264c0.992,0-0.768-8.687-2.175-9.289c-4.798-2.295,6.896-16.63,3.864-17.479
				c-0.182-0.044-0.242-7.916-2.329-7.166c5.784-2.38,0.384-9.886,0.384-10.159c0-0.185,1.637-2.903,1.766-1.331
				c-0.878-6.854,3.178-4.855,3.992-9.34c0.178-0.977,5.021-9.725,0.589-9.725c-0.249,0-2.064,0.447-2.508,0.512
				c-1.44-6.971,0.113-6.74,2.012-13.797c0.688-2.555,1.437-6.669,2.083-8.313c0.592-1.777-2.048-6.265-2.048-8.317
				c0,0.479-18.045-2.572-18.681,1.895c0,30.832-2.035,62.781-2.035,93.393C574.707,910.257,575.35,919.717,574.746,929.023z"/>
			<path d="M612.287,811.793c12.479-7.942-0.406,13.921,5.144,13.921c-8.587,0-4.301,18.877-5.502,19.295
				c0.622-0.232,3.626-1.381,4.223-1.381c-0.081,0,1.536,20.004,1.536,18.885c0,0.797,16.459-10.44,17.785-10.44
				c6.059,0,15.479-16.812,9.929-17.606c-2.079-0.519,14.233-15.917,1.996-15.917c-0.155,0,3.119-9.525,2.575-10.076
				c-0.412-0.417-3.402,4.194-4.801-0.007c0.003,0.009,3.735-1.69,3.735-2.661c0-2.499-32.089-1.395-33.779,0.204
				c0,3.079-0.28-0.256-1.407-0.256c-1.057,0-1.877,5.426-2.201,5.912C611.786,811.634,612.042,811.677,612.287,811.793z
				 M615.896,832.239c-0.047,0.238-0.19,0.602-0.282,0.954C615.71,832.728,615.809,832.39,615.896,832.239z M617.072,842.834
				c-2.561,1.405-2.118-6.085-1.529-9.286c-0.038,0.325,0.023,0.597,0.327,0.688c-0.496-0.109,1.049-5.244,1.049-4.299
				C616.919,831.622,618.765,841.987,617.072,842.834z M645.834,813.226c-0.006-0.138-0.018-0.562,0.002,0.025
				c0,0.102,0.391,4.786-0.23,4.786c-0.74,0-2.65-0.974-3.326-1.331C642.437,816.288,645.735,811.422,645.834,813.226z"/>
			<path d="M645.836,813.251c0-0.01-0.002-0.017-0.002-0.025C645.836,813.261,645.836,813.278,645.836,813.251z"/>
			<path d="M708.533,828.272C707.894,828.171,709.173,828.401,708.533,828.272L708.533,828.272z"/>
			<path d="M704.771,839.61c-0.004-0.01-0.011-0.014-0.015-0.021C704.775,839.64,704.789,839.673,704.771,839.61z"/>
			<path d="M874.488,1031.923c6.67,0.703-7.235-10.342-7.287-12.818c-0.191-9.214,0.473-15.735-2.131-23.546
				c0.44,1.028,4.172,2.946,4.172,4.018c0-5.401-4.095-10.788-4.095-16.25c0-1.726-4.256-12.744-1.587-12.744
				c0.672-0.111,6.193-4.983,6.193-5.681c0-1.781-5.645,2.84-6.244,2.84c-1.654,0-0.584-9.468-1.74-9.468
				c6.867,0-0.491-9.447-0.722-10.646c-0.022,0.714-0.325,1.278-0.916,1.689c-1.774,0,0.421-3.126,0.602-3.385
				c-0.212,0.092-2.837-2.845-2.803-2.833c-1.947-0.834,0.781-48.522,0.384-53.536c1.291-1.426-0.461-36.723,2.636-36.723
				c2.464,0,3.639,6.494,6.577,7.78c6.125,3.545,4.188,18.957,4.273,25.615c0,11.094,0.966,22.713,1.853,33.834
				c0.326,4.094-0.606,28.93,2.146,30.506c-1.118-0.641,0.261-16.955,0.266-18.259c0.06-18.633,0.056-37.265,0.062-55.897
				c0.008-23.896,0.017-47.793,0.024-71.689c-3.24-0.011-13.237-1.496-15.431,0.154c-0.109,0.146-7.453,11.198-10.166,10.584
				c-3.068-0.693,8.342-11.096,9.219-10.482c-1.927-1.205-13.051,2.824-13.051,3.736c0-1.343,3.838-2.866,3.838-3.736
				c0-0.407-8.681-0.256-10.022-0.256c-3.288,0-0.74,7.678-1.263,7.678c0.51,0,1.382,17.033,1.469,18.361
				c1.159,17.746,1.415,35.513,2.975,53.219c0.456,5.175,3.514,57.141,1.468,57.141c-6.169,0-8.508-20.307-9.724-19.577
				c1.069-0.658-3.245-8.062-1.792-8.062c-0.206,0-9.911-6.562-11.539-6.372c0.719-0.753,2.662-3.097-0.872-3.097
				c-1.907,0-7.894,2.531-11.433,2.26c-1.811-0.14-4.713-8.412-5.509-9.322c-3.702-3.472,3.985-2.617,6.55-3.172
				c-1.89-0.945-6.463-7.166-5.986-7.166c-1.817,0,0.724,5.327,1.229,5.399c-0.707-0.118-8.356-7.179-9.853-6.244
				c-1.083,0.433-3.527-9.392-4.76-9.392c-1.468,0-0.241,0.512-1.894,0.512c-1.391,0,10.102-3.268,9.903-2.994
				c1.255-1.568-14.894-3.91-15.815-5.477c-0.59-1.07-0.179-5.676-0.179-6.884c0,0.333-4.588-7.311-4.657-7.421
				c0.05,0.105,14.346-13.553,17.171-16.379c2.493-2.493,19.752-20.473,21.035-20.473c-4.376,0-24.053,25.944-28.2,22.315
				c-2.062-1.89,12.876-14.815,13.716-16.915c0.19-0.697,23.656-17.939,12.668-17.939c1.287,0-19.705,19.049-19.705,20.754
				c0,1.479-19.372,21.706-22.826,16.531c2.399,4.208-11.07,4.806-6.858,1.996c-0.389,0.26-4.862,0.91-4.862,0
				c0,1.842,1.144,4.178,1.268,5.079c-0.477-2.819-15.066-3.808-16.93-5.667c0.545,0.545,12.195,0.312,13.794,0.793
				c0.226,0.064-1.971-1.93-1.971-1.355c0-2.582,7.677,1.601,7.677,0.204c0-6.916-14.842-1.95-14.842-7.242
				c0,1.163,7.983,1.266,9.213,0.768c-2.282-6.065-2.848-16.972-3.257-22.555c-0.141-1.919,0.695-9.306-1.774-9.306
				c-8.133,0-16.266,0-24.398,0c-11.645,0-23.289,0-34.935,0c-11.782,0-31.786-3.377-41.837,0.691
				c0.367,5.891,0.795,11.391-0.103,17.04c-0.14,0.876-0.637,13.263,1.101,14.999c1.866,1.867,6.679-3.174,6.679,1.561
				c0-0.955,4.913-0.526,5.46-0.432c5.537,0.965,2.952-2.863,5.525-4.395c1.817-1.082,6.928-6.732,6.928-3.618
				c1.428,0.663,2.451,0.39,3.071-0.819c0-4.611-0.133,0.423,2.79-1.33c0.452-0.271,2.18-6.773,2.148-6.807
				c1.916,2.868,3.668-3.082,3.736-4.3c0.047-0.653,1.701,7.114-2.021,7.114c1.504,0-4.131,6.045-4.043,5.297
				c-0.637,4.134,7.799-4.529,7.345-4.529c6.081,0-1.511,9.477-1.511,10.16c0,1.584,7.652,0.93,8.036,1.586
				c0.294,0.441-1.776,0.272-1.778,0.355c-0.045,2.154,5.954,6.143,6.957,8.595c0.109,0.267,0.781,7.454,2.422,7.454
				c-0.126,0,5.248,4.582,5.281,4.715c-0.002-0.006-2.322,2.594-2.387,3.298c-0.63-0.63-3.009-2.658-3.125-0.976
				c0.374-3.178-0.266-3.377-1.484-6.629c-0.32-0.854-0.087,2.717,0.521,2.56c-1.259,0.597-4.974-4.777-4.974-3.864
				c0,3.571,3.63,6.123,4.223,7.012c-0.376-0.699-7.549-3.734-7.549-9.34c0-4.6-10.748-8.407-10.748-5.656
				c0.41,0.297,0.838,0.57,1.279,0.819c0,1.969-6.945,4.69-7.934,3.762c-0.896-0.742,2.521-4.657,0.896-4.657
				c-1.528,0-3.062,6.397-5.246,6.397c-1.578,0,1.127-3.839-0.998-3.839c-1.265,0-4.587,11.205-5.426,10.672
				c-1.986-1.21,3.517-10.047,1.203-12.361c-2.317-2.316-8.854-1.109-8.854,2.1c0-1.808-11.64,3.252-11.771,3.173
				c-2.811-1.79-2.897,7.165-2.405,7.165c0.758,0-5.172,5.072-4.529,6.73c0.862,2.243,10.848-2.636,12.795-2.636
				c-0.708,0,0.618,2.511,0.734,2.492c-0.172,0.296-5.389-0.578-4.88,1.372c0.407,0.332,0.859,0.579,1.356,0.742
				c0,0.52-9.914-0.037-9.033,3.045c0.369,1.575,2.918-0.415,3.096,1.484c0.149,1.595-3.723,2.027-5.1,1.326
				c0.012,0.01,0.021,0.021,0.033,0.03c0,0.277-6.451-2.758-7.422-2.175c-2.628,1.533,4.862,3.823,4.862,4.99
				c0,1.078-2.786-0.513-2.942-0.513c-0.289,0.57-0.502,1.167-0.641,1.792c-1.844,0-12.283-4.947-12.283,3.582
				c0-3.573,8.818,0.789,8.573,1.279c-2.36,3.938-13.545,2.502-3.919,6.744c0.841,0.37-0.818,1.783-1.395,2.172
				c0.338,0.283,0.998,1.525,0.854,2.057c0.727-0.41,2.16-1.169,1.9-0.736c-1.203,2.008-2.116,3.997-1.586,7.044
				c0.154,0.894,1.129-3.478,1.04-3.962c0.446,0.789,0.155,16.367-4.7,16.367c0.258,0-0.845-3.141-0.896-3.326
				c-0.446-1.392-1.919,7.27-1.919,7.907c0,2.062-0.704,13.672-2.329,15.11c-0.653-0.133-1.157-0.478-1.51-1.035
				c1.501,9.655-7.165,6.365-7.165,13.588c0,3.14-4.873,9.188-3.301,10.134c2.339,1.56-2.23,13.321-1.767,15.636
				c0.401,2.613,4.603-2.238,5.259-4.492c0.092,0.5,0.273,0.986,0.935,0.986c0.825,0-2.009,3.583-0.69,3.583
				c1.465,0,1.092,0.701,1.97,2.175c0.5-2.742,1.129-4.631,0.435-5.758c-1.742-2.613,10.723-11.637,10.723-13.818
				c0,1.023-1.369,5.75,0.33,5.869c0.935,0.065,6.068-3.146,6.068-2.799c0,3.873-8.957,4.539-8.957,8.957
				c0,1.858-4.45,14.708-3.388,18.436c-0.022-0.006-0.046-0.011-0.067-0.011c0.131,0-1.663,3.515-1.663,3.736
				c0,0.944,2.938,0.652,3.045,0.717c1.12,0.746-0.642,6.619-1.356,7.19c-0.114,0.09,5.045-2.205,5.297-2.303
				c2.721-1.254,0.9-5.239,2.79-6.5c0.879-0.527-1.952-10.449-1.894-10.415c10.266,5.855,0.562,20.419,0.562,29.454
				c0,0.537-4.686,9.833-5.246,9.085c1.886,3.145-8.667-3.583-6.653-3.583c-4.658,0,7.099,14.26,4.53,12.975
				c-0.834-0.417-0.308,9.559-0.308,10.748c0,8.147,5.27,33.253-1.614,37.807c-0.141,0.083-3.049,1.931-3.248,2.063
				c0.49-0.327-0.553,5.502,0.64,5.502c5.886,0,7.789,16.195,2.175,19.705c-2.691,1.796-1.355,0.566-2.584,3.326
				c0.465,0.01,3.353-0.118,3.353,0.358c0,3.801-0.513,6.98-0.513,10.262c0,0.862-1.926-0.769-1.381,0.973
				c0.312,0.979,2.221,1.203,3.045,1.203c-0.016-0.143,0.344,6.898,0.486,7.088c-0.205-0.154-4.81-5.539-4.77-5.582
				c-2.451,2.618,2.225,8.73-3.777,8.73c-3.046,0-4.87,6.484-2.24,7.311c5.061,1.588,12.523,0.272,17.693,0.292
				c46.936,0.179,93.872,0.074,140.808,0.074c9.063,0,112.184,0.326,112.184-0.32
				C876.151,1120.707,879.53,1032.553,874.488,1031.923z M743.849,829.425c0,0.328,1.894,3.172,1.944,1.535
				c0.032-0.287-2.007-1.919-0.256-1.919c0.411,0,3.174,1.784,3.174,2.175c0,2.287-3.409,1.664-4.606,1.664
				C739.804,832.88,743.849,827.727,743.849,829.425z M697.018,828.401c0-0.168,5.886-5.399,5.886-4.223
				c0,0.914-0.946,2.328-0.768,3.582c0.404,0.057,3.071-0.146,3.071,0.256C705.207,828.466,697.018,829.649,697.018,828.401z
				 M710.453,842.092c-1.342,2.686-1.152-1.003-1.152,2.713c-0.328,0.284-0.695,0.507-1.1,0.665c0.57-1.283-4.018-3.95-4.018-3.378
				c0-0.115,6.943,10.058,4.989,9.161c-1.879-0.805-4.327-7.369-6.244-7.369c-4.153,0,1.398-5.04,1.828-4.295
				c-0.034-0.092-0.085-0.243,0.015,0.021C704.897,840.052,710.832,841.332,710.453,842.092z M706.128,827.991
				c0.813-0.203,1.616-0.109,2.405,0.281c2.893,0.579,21.752,0.859,21.752,5.938C730.285,833.155,704.999,829.687,706.128,827.991z
				 M708.917,976.954c0.515,0.143,0.71,0.534,0.589,1.178c1.297-1.482,0.168-1.945,2.252-1.945c1.306,0,0.382,3.827,0.841,4.532
				c-0.362-0.556,2.075-5.078,2.435-5.197c-0.056,0.021-1.184,8.854-1.638,8.854c0.86,0-1.023,5.991-1.023,6.142
				c0,0.965-2.37-2.082-2.456-2.291c0.117,0.993-0.139,1.902-0.769,2.726c-5.653,0.282,1.521-0.224-3.429,2.252
				c-1.312,0.787-2.206-4.129-2.252-4.095c0.582-0.582,1.231,1.152,1.433,1.152C708.296,990.262,705.961,976.954,708.917,976.954z
				 M697.273,904.149c-0.029,0.02-0.052,0.045-0.07,0.074C697.224,904.192,697.246,904.165,697.273,904.149z M697.199,904.231
				c-0.564,0.966,3.553,7.098,4.58,7.732c-1.492-0.956-3.625-10.758-3.969-10.758c0.285,0,1.465,1.592,1.562,1.434
				c0.591-1.107,0.558-1.68,0.368-1.957c0.107,0.008,0.229,0.012,0.373,0.012c0.619,0,8.164,19.87,8.164,24.055
				c0,0.794-1.762-0.366-2.08-0.838c-0.172,0.531-0.332,1.066-0.479,1.605C702.336,925.517,696.196,905.83,697.199,904.231z
				 M697.223,929.101c0.257,0-0.1-11.9,0.639-11.9c0.936,0.472,1.099,1.342,0.487,2.609c0.019-0.616,0.046-1.521-0.001,0.001
				c-0.02,0.695-0.012,0.426,0,0.015c-0.015,1.098,1.656,11.307,2.227,10.964c-0.164,0.115-0.193-5.204,0.062-4.722
				c1.667,3.164,0.22,4.698,0.22,7.024c0,1.622,2.461,3.53,1.74,6.884c-0.164-0.287-0.812-2.833-0.562-2.584
				C702.5,937.858,695.906,929.101,697.223,929.101z M694.049,856.961C694.068,856.929,694.088,856.896,694.049,856.961
				c0.816-1.358,2.744,4.108,2.949,4.032c-0.391,0.662-7.524-3.478-7.351-3.572C690.883,856.615,693.387,858.062,694.049,856.961z
				 M691.999,971.89c-0.013-0.016-0.007-0.012,0.054,0.049c0.048,0.055,0.055,0.064,0.044,0.055c1.257,1.531,2.94,7.683,2.285,9.852
				C694.478,981.528,690.823,970.912,691.999,971.89z M658.965,862.999c6.197-2.065,13.219-2.648,20.067-2.133
				c-0.958-0.08-2.135-0.182,0.481,0.035c0.467,0.041,0.357,0.034,0.041,0.008c0.756,0.167,3.9,3.209,3.9,2.397
				c-0.568-0.449-1.139-0.893-1.715-1.331c0.662-1.986,6.32,2.297,6.32,2.637c0,1.26-1.551,2.894-0.235,4.496
				c-0.137-0.174-2.334-2.961-2.067-2.961c-0.863,0-1.615,1.279-2.559,1.279c0.065,0.958,0.159,1.914,0.281,2.866
				c0,1.596-9.775-7.473-9.238-7.473c0.092,0,2.27,1.769,2.303,1.101c0-1.928-5.836-2.396-5.921-1.647
				c-0.095,0.835,3.747,2.496,3.925,3.745c0.264,1.386-1.439,0.129-1.663,0.129c0.184,0.689,0.218,1.397,0.103,2.123
				c-0.106-0.198-0.206-0.4-0.301-0.604c1.139,2.589,5.137,11.861,2.809,14.193c-0.089,0.078-7.696-12.424-7.856-13.385
				c0.498-0.445,1.078-0.71,1.74-0.793c0-0.85-3.017-1.374-3.583-1.587c-0.158-0.053,3.542-0.438,3.941,0.358
				c-1.429-3.334-5.231-3.055-7.089,1.279c0.87-2.282,12.402,13.768,5.963,13.768c-0.686,0,1.026-2.326-0.064-2.553
				c-0.313,0.309-0.603,0.639-0.866,0.989c-0.678-2.347-1.403-8.269-3.65-9.952c-3.207-3.206-4.633,2.071-7.574,3.174
				C657.336,872.821,655.017,864.69,658.965,862.999z M651.287,916.023c6.311,0-0.324-8.932,2.994-8.932
				c3.729,0,5.736-5.466,6.5-7.241c0.937-2.5,5.416-1.051,6.621-1.955c0.318-0.238,0.377-3.599,1.235-3.599
				c1.032,0-0.737,5.118,0.486,5.118c0.649-2.125,1.153-2.611,1.51-1.459c0.016,0.898,0.978,2.794,2.277,2.713
				c1.183,0,4.146-9.258,4.146-8.829c0,0.236,1.242,5.995,0.461,5.707c-0.165-0.329-0.32-0.663-0.47-0.999
				c0.296,1.855-1.08,9.776-1.501,9.776c1.516,0,0.317,0.131,1.075,2.118c0.161,0.424,0.155-5.814,0.179-5.828
				c1.802-0.901-0.6,12.411,1.254,12.411c0.766,0-0.838-3.021,0.486-3.43c1.074-0.401,1.385,3.686,2.866,3.686
				c-0.024,0,1.241-3.839,1.254-3.839c0.178,0.697,0.382,1.385,0.611,2.066c0.47,0.035,1.622-5.985,1.718-6.801
				c0.003,0.01,2.686,6.781,2.175,6.781c1.221,0,0.396-6.803,0.69-6.336c1.141,1.805,2.486,13.246,0.461,13.246
				c-0.167-0.584-0.334-1.168-0.498-1.754c-0.633,0.271-0.182,2.945-0.286,3.671c0.987,1.489,0.95,5.194-0.111,6.784
				c0.142-0.236,1.886,10.491,2.227,10.491c-3.208,0-2.83-8.7-2.764-8.7c-2.634,0,0.84,11.562,1.353,12.703
				c-0.135-0.23-0.277-0.457-0.432-0.676c-0.82,0,0.779,4.652,0.205,5.17c-0.888,0.887-2.438-8.81-3.177-12.35
				c-0.142,3.479-3.135,12.629-6.292,7.896c-0.083-0.167,1.158-4.044,0.41-4.044c-5.705,0-18.288,0.503-22.443,2.175
				c-6.635-3.206-3.107-6.64-6.5-11.72c-3.531-5.434,3.379-7.356,4.604-9.843C653.451,921.784,647.253,915.417,651.287,916.023z
				 M634.832,995.252c0,0.682-1.424,6.525-1.049,6.525c1.891,0,1.352-4.567,2.047-4.965c0.243-0.151-0.165,11.171-3.607,7.729
				C631.018,1003.336,634.832,992.893,634.832,995.252z M624.084,1008.047c0-1.003,4.123-7.546,4.297-5.168
				c-0.012-0.207-0.021-0.377,0.003,0.024c0.025,0.476,0.013,0.253-0.001,0.025c0.037,1.29-2.381,9.085-3.607,9.085
				c-3.03,0,0.594-3.229,0.896-3.455C625.253,1008.111,624.725,1007.94,624.084,1008.047z M626.361,1034.533
				c-0.633,0-2.155,1.282-2.737,1.766c-3.467-3.146-0.819-7.09-0.819-10.467c0,2.607,10.004,4.998,11.158,1.92
				c0.597-1.492,4.545-0.896,5.066-0.896c1.711,0-0.846,2.324-3.011,3.777c3.296,1.416,7.903,6.971,0.375,6.971
				c-1.282,0-7.123,4.402-7.747,4.827c-0.217-0.499-3.944-4.397-4.051-4.597C624.61,1037.858,626.804,1034.533,626.361,1034.533z
				 M633.553,1045.025c0,0.3,4.025,2.678,4.178,3.224C639.07,1053.036,633.553,1047.499,633.553,1045.025z M629.684,1096.892
				c-0.033-2.275-5.985-18.701,3.025-14.965c-2.43,0.805-4.27,10.643-2.482,14.663
				C629.98,1096.575,629.799,1096.676,629.684,1096.892z M636.368,1102.604c-0.693-1.088,1.222-2.396-1.795-1.493
				c0.562-0.168-0.111,2.025-0.313,2.149c0.668,0.281,1.361,0.448,2.082,0.496c-1.457,1.335-5.115-0.654-5.322,1.202
				c0.012-0.29-0.438-5.419-0.523-6.127c0.301,1.361,9.77,1.447,9.659,1.777C640.163,1100.584,635.93,1101.972,636.368,1102.604z
				 M700.651,1058.997c0.637-0.162,7.882-3.049,7.882-3.198C708.533,1059.598,701.755,1059.789,700.651,1058.997z M745.696,1025.923
				c-2.504-0.691-4.315,16.799-5.431,16.799c6.557,0-13.307,21.032-13.307,11.184c0,1.37-1.714-7.707,0.076-5.912
				c-0.569-0.427,4.529-6.663,4.529-7.293c0-3.487,11.342-15.559,14.129-14.778c-0.297-0.103-0.835-0.293,0.049,0.013
				C745.93,1026.003,745.844,1025.975,745.696,1025.923z M735.659,1019.946c0.528,0.316-25.475,38.309-28.354,30.248
				c-0.047-0.142,3.347-0.92,2.371-1.484c-5.438-3.141-11.616,1.973-13.042,5.477c-4.381-0.185-2.548,5.426-2.431,5.426
				c0.636,0-9.213,8.272-9.213,5.629c0-0.008-7.166-0.564-7.166-0.025c0,7.037,0.154,5.656-5.016,5.656
				c-2.096,0,2.092,10.198-3.736,10.262c-3.222,0.062-23.236,1.255-23.236-1.306c0.413-0.306,0.865-0.502,1.357-0.588
				c0.465-1.332-3.762-2.255-4.988-2.445c1.631,0.411-1.146,4.281-1.871,2.291c-1.77-3.975,2.366-3.749,1.971-6.32
				c0.166,1.246-4.766-9.288-2.994-7.601c-0.605-0.605-1.12-2.514-1.229-2.738c1.398-0.78,4.465-7.421,1.484-7.421
				c-0.64,0-0.154,1.791-1.33,1.791c-2.232,0-1.386-7.421,0.947-7.421c-0.584,0,4.094,5.192,4.094,2.533
				c0-0.71-2.559-1.591-2.559-1.766c0-0.8,6.434-2.975,6.781-2.662c3.189,3.191-6.182,12.571,2.175,13.154
				c-0.577-10.698,5.209-14.495,8.317-23.032c1.572-5.767,16.506-12.171,16.506-16.378c0-4.949-26.395-32.609-17.402-38.002
				c1.441-0.721,0.878-8.499,5.375-10.185c1.836-0.648,5.887-3.25,8.316-3.25c2.361,0,4.77-5.63,5.553-5.63
				c-2.444,0,3.329-5.073,3.276-3.327c0.159-5.246-2.403-3.535-3.967-6.142c1.561,2.338,3.007-5.446,4.812-2.38
				c0.018,0.03,0.025,0.04,0.025,0.04c0.771,1.203,4.936,6.438,5.809,7.15c3.453,2.922,0.893,6.732,2.021,10.928
				c0.633,2.78-0.256,9.895-0.256,12.923c0,0.542,5.125,6.555,4.862,7.485c-1.397,4.946-8.071,8.322-9.366,12.859
				c-1.695,7.897,11.926,8.059,11.926,8.087c0,1.89,23.624-25.872,22.289-25.872c11.253,0,1.168,12.845,3.646,17.136
				c1.345,2.327,7.724-7.51,8.1-6.899c0.249,0.387-0.505,5.63-1.688,5.63c-0.125-0.462-0.201-0.931-0.23-1.407
				c-2.443,4.276-7.643,12.225-10.39,13.972c-0.037,0.022-0.018,0.027,0.043,0.021c-7.744,3.691-21.006,26.232-15.219,32.02
				c0.713,0.633,9.678-17.297,12.133-19.791c4.646-4.723,9.384-8.844,12.866-14.491c1.138-1.845,9.915-19.279,10.034-19.279
				c1.199,0,8.348-15.052,6.558-15.031C756.394,977.644,736.631,1020.554,735.659,1019.946z M763.374,964.287
				c-1.14-1.253-2.904-9.188-3.045-9.469c0.076,0.204-0.103-0.204,0,0C760.623,955.604,764.454,965.315,763.374,964.287z
				 M764.717,904.38c1.845-0.256,5.234-1.222,5.234-0.615c0,0.938,6.397,1.735,6.397,3.584
				C776.349,906.683,767.871,904.899,764.717,904.38z M770.463,893.785c1.378,0,3.326,0.884,3.326-0.256
				c0,3.444,5.118,5.622,5.118,8.573c0,1.241,3.093,10.896,3.608,11.668C780.689,910.85,775.103,893.785,770.463,893.785z
				 M807.057,914.769c0-0.15,4.375-0.795,4.556-0.256c0.021,0.055,0.016,0.035,0.006,0.007c0.197,0.326,6.327,1.743,6.801,1.811
				c-1.498,0-3.987,2.79-3.301,2.79C812.916,919.12,807.057,918.323,807.057,914.769z M818.24,968.049
				c0.94,1.059,2.543-0.412,3.736-0.103c-1.034-0.278-9.766,6.354-12.284,2.082c-1.538-2.609,7.601-0.286,7.601-1.775
				c-0.391-0.296-0.817-0.526-1.279-0.69c0-1.313,6.909-2.499,6.909-2.048C822.923,966.024,817.375,967.112,818.24,968.049z
				 M818.803,923.035c0.189-0.048,2.841-1.269,2.841-0.333c0,1.172,4.606,0.857,4.606,2.738
				C826.25,926.437,818.543,923.103,818.803,923.035z M819.853,917.866c0-1.354,3.07-0.066,3.07-0.282
				c0,0.896,5.118,1.497,5.118,3.583C828.041,922.08,819.853,918.163,819.853,917.866z"/>
			<path d="M625.364,890.253c-0.001,0.023,0.071-0.014,0.188-0.092C625.441,890.067,625.364,890.076,625.364,890.253z"/>
			<path d="M861.048,947.627c0.002-0.034,0.006-0.067,0.005-0.102C861.04,947.546,861.039,947.581,861.048,947.627z"/>
			<path d="M640.686,872.259c-0.197-0.173-0.357-0.375-0.479-0.609C640.207,871.905,640.39,872.107,640.686,872.259z"/>
			<path d="M626.406,892.218c-0.244,0.137-0.41,0.236-0.402,0.236C626.238,892.478,626.361,892.382,626.406,892.218z"/>
			<path d="M811.663,893.273c0,0.249-0.304,0.406-0.795,0.513C811.354,894.028,811.663,893.923,811.663,893.273z"/>
			<path d="M686.525,921.679c0.204,0.367,0.503,0.641,0.896,0.818c0.06,0.013,0.093-0.057,0.111-0.181
				C687.27,921.92,686.934,921.679,686.525,921.679z"/>
			<path d="M684.479,934.474c0.067,0,0.191,0.483,0.354,1.266C684.864,934.968,684.756,934.474,684.479,934.474z"/>
			<path d="M672.399,866.991c-0.008,0.003,0.08,0.201,0.233,0.549C672.551,867.359,672.472,867.177,672.399,866.991z"/>
			<path d="M745.693,1025.922c0.001,0.001,0.002,0.001,0.003,0.001c0.016,0.005,0.03,0.006,0.046,0.012
				C745.727,1025.929,745.709,1025.927,745.693,1025.922z"/>
			<path d="M633.553,1031.615c0,0.454,1.162-0.106,2.466-0.982C634.678,1030.058,633.553,1030.166,633.553,1031.615z"/>
			<path d="M679.514,860.901c-0.16-0.014-0.321-0.023-0.481-0.035c0.194,0.016,0.379,0.031,0.522,0.043
				C679.541,860.906,679.525,860.902,679.514,860.901z"/>
			<path d="M676.878,896.165c0.055,0.128,0.113,0.255,0.17,0.383C677.014,896.335,676.959,896.197,676.878,896.165z"/>
			<path d="M628.384,1002.903c-0.001-0.009-0.003-0.016-0.003-0.024c0.001,0.017,0.002,0.033,0.002,0.05
				C628.383,1002.921,628.384,1002.91,628.384,1002.903z"/>
			<path d="M634.26,1103.26c-0.014-0.006-0.027-0.01-0.041-0.017C634.228,1103.268,634.242,1103.271,634.26,1103.26z"/>
			<path d="M654.611,920.204c0.115-0.158,0.182-0.395,0.182-0.727C654.793,919.728,654.727,919.968,654.611,920.204z"/>
			<path d="M642.205,1076.795c-0.074-0.019-0.158-0.03-0.251-0.034C642.011,1076.767,642.097,1076.778,642.205,1076.795z"/>
			<path d="M692.097,971.993c-0.015-0.018-0.029-0.038-0.044-0.055c-0.02-0.02-0.037-0.035-0.054-0.049
				C692.018,971.912,692.08,971.978,692.097,971.993z"/>
			<path d="M706.197,923.911c0.02-0.062,0.038-0.124,0.059-0.186C706.127,923.726,706.123,923.8,706.197,923.911z"/>
			<path d="M694.049,856.96L694.049,856.96C694.029,856.993,694.012,857.023,694.049,856.96z"/>
			<path d="M674.601,1014.188c-0.923,1.842-1.991,6.687,1.791,3.327C679.054,1014.854,674.855,1013.509,674.601,1014.188z"/>
			<path d="M674.601,1014.188C674.678,1013.983,674.498,1014.394,674.601,1014.188L674.601,1014.188z"/>
			<path d="M675.263,1048.914c0.024-0.02,0.043-0.037,0.054-0.05C675.5,1048.604,675.346,1048.801,675.263,1048.914z"/>
			<path d="M675.316,1048.864c-0.133,0.164-0.109,0.125-0.054,0.05c-0.644,0.521-5.746,3.042-3.272,4.658
				C675.762,1055.894,677.384,1045.936,675.316,1048.864z"/>
			<path d="M781.979,816.245c-1.096,0.01-5.977,0.689-6.296,0.18c0.065,0.129,0.031,0.076-0.001,0.018
				c-0.104,0.188-3.367,0.408-3.863,0.903C771.93,817.235,779.401,819.747,781.979,816.245z"/>
			<path d="M775.682,816.442c0.004-0.006,0.004-0.012,0.001-0.018C775.62,816.323,775.65,816.385,775.682,816.442z"/>
			<path d="M775.196,836.718c-0.766-0.06-5.758-0.252-5.758,0.385C769.438,838.283,775.246,843.429,775.196,836.718z"/>
			<path d="M620.886,862.82c-5.222,0-2.674,7.8-2.61,7.78c4.541-1.514,10.416-10.309,10.416-12.387c0-0.194-1.902,2.24-1.613,2.124
				C627.566,860.155,621.871,862.82,620.886,862.82z"/>
			<path d="M819.853,869.09c0,0.227,0.988,7.776,1.03,7.681C822.397,873.278,819.853,868.399,819.853,869.09z"/>
			<path d="M818.976,890.417c0.021-0.003,0.04-0.006,0.058-0.01C819.183,890.374,819.03,890.405,818.976,890.417z"/>
			<path d="M816.167,891.328c0.498,1.295,3.438-0.151,4.044,0.052c0.182,0.072,0.112,2.917,2.609,2.917
				c0.787,0-2.064-4.272-3.787-3.89c-0.09,0.018-0.088,0.017-0.058,0.01C818.324,890.524,815.913,890.642,816.167,891.328z"/>
			<path d="M832.161,905.812c3.443,0-4.632-10.096-4.632-8.675C827.529,897.595,832.041,905.812,832.161,905.812z"/>
			<path d="M588.386,915.435c0.001,0,0.29-4.27-0.671-2.1c0.027-0.068,0.034-0.086-0.046,0.104c-0.03,0.075-0.04,0.102-0.038,0.1
				c-0.361,0.938-1.42,4.092-1.42,4.814c0,0.602,2.047,1.021,2.047,1.279c0-0.035-2.48,3.326-1.075,3.326
				c2.569,0,1.583-8.015,1.926-8.748C588.793,914.571,588.551,914.978,588.386,915.435z"/>
			<path d="M589.108,914.21c0.016-0.018,0.028-0.037,0.045-0.055C589.136,914.161,589.121,914.182,589.108,914.21z"/>
			<path d="M576.179,980.613c0.647-0.136,3.268-10.882,3.628-9.538c-0.73-2.72-4.344,2.317-4.344-1.03
				c0,1.057,3.638-4.03,3.863-4.734c4.323,1.47,0.742-1.034,0.742-2.277c0-1.778-6.771,3.988-6.142,3.736
				C573.102,967.044,571.916,981.808,576.179,980.613z"/>
			<path d="M598.314,1040.956c0.02-0.07-1.36,0.742-1.355,0.742c-0.512,0,1.363-2.4,0.834-2.633
				c-1.213-0.531-2.982-0.145-4.289-0.31c0.087-1.407-0.705-11.557-0.41-11.475c0.725,0.629,1.483,1.212,2.278,1.75
				c-0.106-0.032,0.713-4.121,0-4.3c-3.663-0.999-2.524,2.976-3.41-1.452c-0.481-0.256-0.991-0.36-1.529-0.313
				c-0.04,0.519-1.013-9.277-0.384-8.7c2.077,1.898,0.564,2.408,1.638,3.838c1.037,1.035,2.083-10.148,2.191-10.706
				c-0.16-0.156-3.896-3.676-4.652-5.064c-0.069,0.306-0.177,0.593-0.323,0.863c-0.129-1.976-6.252-11.104-5.763-9.736
				c-0.724-1.81-6.394-3.71-7.446-3.71c1.807,0-1.652-9.769-2.029-8.363c0.007-0.063,0.007-0.094-0.019,0.097
				c0,4.841-2.355,80.176-0.486,80.176c-2.265,0,0.512,66.257,0.512,70.271c0,0.764,20.217,0.365,20.217,0.103
				c0-4.034,3.327-8.782,3.327-12.027c0-2.572-1.279-7.131-1.279-10.748c0-0.202-3.818-7.678-2.33-7.678
				c2.245,0,1.06-7.165-2.021-7.165c-0.012,0,0.299-5.549,0.256-5.886c0.24,0.04,0.454-0.028,0.641-0.205
				c0.508,0.509-0.439,3.02,0.357,3.02c4.545,0,0.578-15.492-1.602-16.56c-1.018-0.498,1.623-2.12,1.628-2.198
				c0-1.738-3.327-7.172-3.327-10.824c0-2.904,6.075-4.341,5.832-7.578c-0.23-3.063-7.857,0.633-5.049-3.122
				C593.134,1047.3,596.707,1045.773,598.314,1040.956z"/>
			<path d="M593.878,1007.397c0.004,0.004,0.01,0.01,0.01,0.01C593.888,1007.366,593.885,1007.366,593.878,1007.397z"/>
			<path d="M589.226,1002.333c0.04-0.18,0.068-0.364,0.081-0.556C589.031,1001.777,589.039,1001.991,589.226,1002.333z"/>
			<path d="M605.812,1003.952C605.915,1004.183,605.736,1003.748,605.812,1003.952L605.812,1003.952z"/>
			<path d="M605.812,1003.952c0.144,0.323-1.562,0.313-2.031,0.292c0.424,0.299,1.11,3.12,1.11,3.675
				C604.892,1009.444,606.644,1006.165,605.812,1003.952z"/>
			<path d="M603.663,1004.233c-0.003,0.003,0.041,0.007,0.118,0.011C603.739,1004.214,603.699,1004.208,603.663,1004.233z"/>
		</g>
	</g>
</g>
<g id="type" display="none">
	<g display="inline">
		<g>
			<path d="M563.254,859.459c1.269,0.87,3.168,4.246,3.732,4.634c0.846,0.58,1.571,0.731,2.055,0.027
				c0.419-0.611,0.571-1.337,0.99-1.947c1.225-1.786,2.526-0.962,4.124,0.134c0.658,0.451,2.444,1.677,1.767,2.664
				c-0.258,0.375-1.326,1.025-1.906,1.871c-1.773,2.585,1.234,4.648,5.417,7.518c12.501,8.576,16.375,7.363,17.174,7.912
				c0.705,0.482-0.403,7.74-1.145,8.821c-1.225,1.786-12.028-4.935-14.613-6.708c-5.781-3.965-7.843-5.795-8.736-6.407
				c-1.41-0.968-3.611-3.099-5.062-0.984c-0.581,0.847-0.339,1.703-0.693,2.22c-0.419,0.611-0.998,0.145-1.844-0.436
				c-3.572-2.45-3.286-3.774-2.061-5.561c0.129-0.188,0.543-0.388,0.801-0.764c1-1.457-1.207-3.178-2.69-4.541
				c-1.625-1.461,0.67-7.627,1.315-8.566C562.105,859.017,562.361,858.846,563.254,859.459z"/>
			<path d="M603.744,853.281c-8.567-10.812-6.828-20.917-0.841-25.66c4.915-3.895,11.265-4.417,15.441,0.855
				c7.611,9.605-8.368,18.994-4.687,23.641c1.664,2.1,6.263,0.928,8.497-0.842c7.327-5.806,2.902-11.391,3.527-11.886
				c0.67-0.531,2.646,1.686,2.929,2.043c4.496,5.675,2.701,12.405-2.66,16.653C617.953,864.422,609.408,860.43,603.744,853.281z
				 M606.271,844.079c0.39,0.491,1.002,0.806,1.583,0.346c0.536-0.425,7.251-8.655,5.446-10.934
				c-1.735-2.188-4.746-1.767-6.443-0.422C603.237,835.938,604.217,841.488,606.271,844.079z"/>
			<path d="M657.234,838.434c-1.977,0.736-2.319,2.751-8.916-14.926c-5.52-14.794-7.183-17.945-5.707-18.557l4.433-1.654
				c0.802-0.299,1.663-0.925,2.095,0.07c0.406,0.762,0.892,1.736,1.959,1.338c0.802-0.299,1.391-1.492,2.193-2.766
				c0.822-1.22,1.785-2.553,3.228-3.09c2.724-1.018,5.843,0.496,6.919,3.38c1.396,3.738-0.812,7.117-2.414,7.716
				c-0.641,0.238-1.229-3.619-4.913-2.244c-4.486,1.674-2.116,9.004-0.921,12.208c3.966,10.628,7.455,14.437,7.814,15.397
				c0.266,0.875-0.91,1.312-1.497,1.532L657.234,838.434z"/>
			<path d="M691.366,811.459c-0.635-13.781,6.681-20.966,14.312-21.318c6.264-0.288,11.723,2.998,12.032,9.719
				c0.564,12.242-17.89,10.525-17.617,16.447c0.123,2.677,4.54,4.414,7.388,4.282c9.339-0.431,9.011-7.549,9.809-7.585
				c0.854-0.04,1.161,2.914,1.183,3.369c0.333,7.232-5.057,11.646-11.89,11.961C696.389,828.805,691.786,820.57,691.366,811.459z
				 M698.794,805.467c0.029,0.627,0.343,1.24,1.083,1.206c0.684-0.032,10.942-2.787,10.809-5.691
				c-0.129-2.79-2.818-4.207-4.982-4.107C701.09,797.086,698.643,802.164,698.794,805.467z"/>
			<path d="M742.486,820.465c0.746-2.573,3.014-5.477,3.451-5.35c0.274,0.079-0.756,8.744,7.019,10.999
				c2.245,0.651,5.206,0.265,6.017-2.528c1.636-5.639-13.575-8.449-10.414-19.344c1.938-6.68,8.352-8.736,14.265-7.021
				c6.844,1.986,9.43,7.188,9.112,8.283c-0.302,1.04-4.654,4.585-5.914,4.22c-1.424-0.413-0.528-4.724-5.565-6.186
				c-1.697-0.492-4.219-0.394-4.695,1.249c-1.637,5.64,14.382,10.168,11.157,21.282c-2.064,7.118-9.153,9.453-15.723,7.548
				C745.392,831.933,740.628,826.871,742.486,820.465z M764.042,788.314c0.194,0.354,0.784,1.594,1.276,1.736
				c0.548,0.158,1.765-0.557,2.204-0.845l2.661-1.603c0.777-0.428,1.955-1.213,2.831-0.959c0.492,0.143,3.147,2.041,2.893,2.917
				c-0.19,0.657-1.179,1.2-1.744,1.512l-7.175,4.27c-1.64,0.948-1.971,1.269-3.777,0.744c-2.354-0.683-2.617-1.412-3.768-3.586
				l-4.213-7.573c-0.249-0.369-0.537-0.809-0.41-1.247c0.08-0.274,4.397-1.039,5.931-0.595c0.492,0.144,0.732,0.747,0.943,1.046
				L764.042,788.314z"/>
			<path d="M785.071,846.989c-1.634-1.146,9.513-16.651,10.265-17.725c1.538-2.193,16.008-23.235,18.108-21.763l4.994,3.5
				c0.606,0.426,0.924,1.064,0.4,1.812c-0.654,0.933-5.345,4.049-13.896,16.152c-1.146,1.634-2.617,3.734-2.011,4.16
				c1.587,1.111,10.152-2.072,13.686-7.113c0.818-1.167,1.154-0.653,2.135,0.033l2.847,1.996c0.934,0.654,2.204,1.127,1.288,2.434
				c-4.515,6.441-12.547,7.076-13.201,8.01c-0.688,0.98,0.703,3.068,0.948,6.791c0.245,3.721-0.622,9.029-4.515,14.584
				c-0.981,1.4-1.771,0.639-2.938-0.179l-3.78-2.649c-1.261-0.884-1.713-1.131-0.713-2.658c4.468-6.474,5.065-13.781,3.665-14.763
				c-0.607-0.425-3.245-1.229-4.815,1.011c-3.991,5.694-4.95,9.546-5.539,10.387c-0.36,0.513-0.859,0.232-1.56-0.258
				L785.071,846.989z"/>
			<path d="M833.159,863.301c7.424-5.396,17.981-7.642,23.812,0.382c5.831,8.023,0.434,17.371-6.99,22.766
				c-10.837,7.874-20.051,4.987-23.904-0.315S822.322,871.174,833.159,863.301z M846.978,879.893
				c3.644-2.646,7.869-7.691,4.552-12.256c-3.316-4.565-9.42-2.104-13.062,0.543c-3.689,2.682-8.074,7.7-4.69,12.357
				C837.161,885.194,843.289,882.573,846.978,879.893z"/>
		</g>
		<g>
			<circle fill="none" stroke="#000000" stroke-width="11" cx="712.5" cy="968.499" r="141.142"/>
			<path fill="none" stroke="#000000" stroke-width="11" d="M563.254,859.459c1.269,0.87,3.168,4.246,3.732,4.634
				c0.846,0.58,1.571,0.731,2.055,0.027c0.419-0.611,0.571-1.337,0.99-1.947c1.225-1.786,2.526-0.962,4.124,0.134
				c0.658,0.451,2.444,1.677,1.767,2.664c-0.258,0.375-1.326,1.025-1.906,1.871c-1.773,2.585,1.234,4.648,5.417,7.518
				c12.501,8.576,16.375,7.363,17.174,7.912c0.705,0.482-0.403,7.74-1.145,8.821c-1.225,1.786-12.028-4.935-14.613-6.708
				c-5.781-3.965-7.843-5.795-8.736-6.407c-1.41-0.968-3.611-3.099-5.062-0.984c-0.581,0.847-0.339,1.703-0.693,2.22
				c-0.419,0.611-0.998,0.145-1.844-0.436c-3.572-2.45-3.286-3.774-2.061-5.561c0.129-0.188,0.543-0.388,0.801-0.764
				c1-1.457-1.207-3.178-2.69-4.541c-1.625-1.461,0.67-7.627,1.315-8.566C562.105,859.017,562.361,858.846,563.254,859.459z"/>
			<path fill="none" stroke="#000000" stroke-width="11" d="M603.744,853.281c-8.567-10.812-6.828-20.917-0.841-25.66
				c4.915-3.895,11.265-4.417,15.441,0.855c7.611,9.605-8.368,18.994-4.687,23.641c1.664,2.1,6.263,0.928,8.497-0.842
				c7.327-5.806,2.902-11.391,3.527-11.886c0.67-0.531,2.646,1.686,2.929,2.043c4.496,5.675,2.701,12.405-2.66,16.653
				C617.953,864.422,609.408,860.43,603.744,853.281z M606.271,844.079c0.39,0.491,1.002,0.806,1.583,0.346
				c0.536-0.425,7.251-8.655,5.446-10.934c-1.735-2.188-4.746-1.767-6.443-0.422C603.237,835.938,604.217,841.488,606.271,844.079z"
				/>
			<path fill="none" stroke="#000000" stroke-width="11" d="M657.234,838.434c-1.977,0.736-2.319,2.751-8.916-14.926
				c-5.52-14.794-7.183-17.945-5.707-18.557l4.433-1.654c0.802-0.299,1.663-0.925,2.095,0.07c0.406,0.762,0.892,1.736,1.959,1.338
				c0.802-0.299,1.391-1.492,2.193-2.766c0.822-1.22,1.785-2.553,3.228-3.09c2.724-1.018,5.843,0.496,6.919,3.38
				c1.396,3.738-0.812,7.117-2.414,7.716c-0.641,0.238-1.229-3.619-4.913-2.244c-4.486,1.674-2.116,9.004-0.921,12.208
				c3.966,10.628,7.455,14.437,7.814,15.397c0.266,0.875-0.91,1.312-1.497,1.532L657.234,838.434z"/>
			<path fill="none" stroke="#000000" stroke-width="11" d="M691.366,811.459c-0.635-13.781,6.681-20.966,14.312-21.318
				c6.264-0.288,11.723,2.998,12.032,9.719c0.564,12.242-17.89,10.525-17.617,16.447c0.123,2.677,4.54,4.414,7.388,4.282
				c9.339-0.431,9.011-7.549,9.809-7.585c0.854-0.04,1.161,2.914,1.183,3.369c0.333,7.232-5.057,11.646-11.89,11.961
				C696.389,828.805,691.786,820.57,691.366,811.459z M698.794,805.467c0.029,0.627,0.343,1.24,1.083,1.206
				c0.684-0.032,10.942-2.787,10.809-5.691c-0.129-2.79-2.818-4.207-4.982-4.107C701.09,797.086,698.643,802.164,698.794,805.467z"
				/>
			<path fill="none" stroke="#000000" stroke-width="11" d="M742.486,820.465c0.746-2.573,3.014-5.477,3.451-5.35
				c0.274,0.079-0.756,8.744,7.019,10.999c2.245,0.651,5.206,0.265,6.017-2.528c1.636-5.639-13.575-8.449-10.414-19.344
				c1.938-6.68,8.352-8.736,14.265-7.021c6.844,1.986,9.43,7.188,9.112,8.283c-0.302,1.04-4.654,4.585-5.914,4.22
				c-1.424-0.413-0.528-4.724-5.565-6.186c-1.697-0.492-4.219-0.394-4.695,1.249c-1.637,5.64,14.382,10.168,11.157,21.282
				c-2.064,7.118-9.153,9.453-15.723,7.548C745.392,831.933,740.628,826.871,742.486,820.465z M764.042,788.314
				c0.194,0.354,0.784,1.594,1.276,1.736c0.548,0.158,1.765-0.557,2.204-0.845l2.661-1.603c0.777-0.428,1.955-1.213,2.831-0.959
				c0.492,0.143,3.147,2.041,2.893,2.917c-0.19,0.657-1.179,1.2-1.744,1.512l-7.175,4.27c-1.64,0.948-1.971,1.269-3.777,0.744
				c-2.354-0.683-2.617-1.412-3.768-3.586l-4.213-7.573c-0.249-0.369-0.537-0.809-0.41-1.247c0.08-0.274,4.397-1.039,5.931-0.595
				c0.492,0.144,0.732,0.747,0.943,1.046L764.042,788.314z"/>
			<path fill="none" stroke="#000000" stroke-width="11" d="M785.071,846.989c-1.634-1.146,9.513-16.651,10.265-17.725
				c1.538-2.193,16.008-23.235,18.108-21.763l4.994,3.5c0.606,0.426,0.924,1.064,0.4,1.812c-0.654,0.933-5.345,4.049-13.896,16.152
				c-1.146,1.634-2.617,3.734-2.011,4.16c1.587,1.111,10.152-2.072,13.686-7.113c0.818-1.167,1.154-0.653,2.135,0.033l2.847,1.996
				c0.934,0.654,2.204,1.127,1.288,2.434c-4.515,6.441-12.547,7.076-13.201,8.01c-0.688,0.98,0.703,3.068,0.948,6.791
				c0.245,3.721-0.622,9.029-4.515,14.584c-0.981,1.4-1.771,0.639-2.938-0.179l-3.78-2.649c-1.261-0.884-1.713-1.131-0.713-2.658
				c4.468-6.474,5.065-13.781,3.665-14.763c-0.607-0.425-3.245-1.229-4.815,1.011c-3.991,5.694-4.95,9.546-5.539,10.387
				c-0.36,0.513-0.859,0.232-1.56-0.258L785.071,846.989z"/>
			<path fill="none" stroke="#000000" stroke-width="11" d="M833.159,863.301c7.424-5.396,17.981-7.642,23.812,0.382
				c5.831,8.023,0.434,17.371-6.99,22.766c-10.837,7.874-20.051,4.987-23.904-0.315S822.322,871.174,833.159,863.301z
				 M846.978,879.893c3.644-2.646,7.869-7.691,4.552-12.256c-3.316-4.565-9.42-2.104-13.062,0.543
				c-3.689,2.682-8.074,7.7-4.69,12.357C837.161,885.194,843.289,882.573,846.978,879.893z"/>
		</g>
		<g>
			<circle fill="#FFFFFF" cx="712.5" cy="968.499" r="141.142"/>
			<path fill="#FFFFFF" d="M563.254,859.459c1.269,0.87,3.168,4.246,3.732,4.634c0.846,0.58,1.571,0.731,2.055,0.027
				c0.419-0.611,0.571-1.337,0.99-1.947c1.225-1.786,2.526-0.962,4.124,0.134c0.658,0.451,2.444,1.677,1.767,2.664
				c-0.258,0.375-1.326,1.025-1.906,1.871c-1.773,2.585,1.234,4.648,5.417,7.518c12.501,8.576,16.375,7.363,17.174,7.912
				c0.705,0.482-0.403,7.74-1.145,8.821c-1.225,1.786-12.028-4.935-14.613-6.708c-5.781-3.965-7.843-5.795-8.736-6.407
				c-1.41-0.968-3.611-3.099-5.062-0.984c-0.581,0.847-0.339,1.703-0.693,2.22c-0.419,0.611-0.998,0.145-1.844-0.436
				c-3.572-2.45-3.286-3.774-2.061-5.561c0.129-0.188,0.543-0.388,0.801-0.764c1-1.457-1.207-3.178-2.69-4.541
				c-1.625-1.461,0.67-7.627,1.315-8.566C562.105,859.017,562.361,858.846,563.254,859.459z"/>
			<path fill="#FFFFFF" d="M603.744,853.281c-8.567-10.812-6.828-20.917-0.841-25.66c4.915-3.895,11.265-4.417,15.441,0.855
				c7.611,9.605-8.368,18.994-4.687,23.641c1.664,2.1,6.263,0.928,8.497-0.842c7.327-5.806,2.902-11.391,3.527-11.886
				c0.67-0.531,2.646,1.686,2.929,2.043c4.496,5.675,2.701,12.405-2.66,16.653C617.953,864.422,609.408,860.43,603.744,853.281z
				 M606.271,844.079c0.39,0.491,1.002,0.806,1.583,0.346c0.536-0.425,7.251-8.655,5.446-10.934
				c-1.735-2.188-4.746-1.767-6.443-0.422C603.237,835.938,604.217,841.488,606.271,844.079z"/>
			<path fill="#FFFFFF" d="M657.234,838.434c-1.977,0.736-2.319,2.751-8.916-14.926c-5.52-14.794-7.183-17.945-5.707-18.557
				l4.433-1.654c0.802-0.299,1.663-0.925,2.095,0.07c0.406,0.762,0.892,1.736,1.959,1.338c0.802-0.299,1.391-1.492,2.193-2.766
				c0.822-1.22,1.785-2.553,3.228-3.09c2.724-1.018,5.843,0.496,6.919,3.38c1.396,3.738-0.812,7.117-2.414,7.716
				c-0.641,0.238-1.229-3.619-4.913-2.244c-4.486,1.674-2.116,9.004-0.921,12.208c3.966,10.628,7.455,14.437,7.814,15.397
				c0.266,0.875-0.91,1.312-1.497,1.532L657.234,838.434z"/>
			<path fill="#FFFFFF" d="M691.366,811.459c-0.635-13.781,6.681-20.966,14.312-21.318c6.264-0.288,11.723,2.998,12.032,9.719
				c0.564,12.242-17.89,10.525-17.617,16.447c0.123,2.677,4.54,4.414,7.388,4.282c9.339-0.431,9.011-7.549,9.809-7.585
				c0.854-0.04,1.161,2.914,1.183,3.369c0.333,7.232-5.057,11.646-11.89,11.961C696.389,828.805,691.786,820.57,691.366,811.459z
				 M698.794,805.467c0.029,0.627,0.343,1.24,1.083,1.206c0.684-0.032,10.942-2.787,10.809-5.691
				c-0.129-2.79-2.818-4.207-4.982-4.107C701.09,797.086,698.643,802.164,698.794,805.467z"/>
			<path fill="#FFFFFF" d="M742.486,820.465c0.746-2.573,3.014-5.477,3.451-5.35c0.274,0.079-0.756,8.744,7.019,10.999
				c2.245,0.651,5.206,0.265,6.017-2.528c1.636-5.639-13.575-8.449-10.414-19.344c1.938-6.68,8.352-8.736,14.265-7.021
				c6.844,1.986,9.43,7.188,9.112,8.283c-0.302,1.04-4.654,4.585-5.914,4.22c-1.424-0.413-0.528-4.724-5.565-6.186
				c-1.697-0.492-4.219-0.394-4.695,1.249c-1.637,5.64,14.382,10.168,11.157,21.282c-2.064,7.118-9.153,9.453-15.723,7.548
				C745.392,831.933,740.628,826.871,742.486,820.465z M764.042,788.314c0.194,0.354,0.784,1.594,1.276,1.736
				c0.548,0.158,1.765-0.557,2.204-0.845l2.661-1.603c0.777-0.428,1.955-1.213,2.831-0.959c0.492,0.143,3.147,2.041,2.893,2.917
				c-0.19,0.657-1.179,1.2-1.744,1.512l-7.175,4.27c-1.64,0.948-1.971,1.269-3.777,0.744c-2.354-0.683-2.617-1.412-3.768-3.586
				l-4.213-7.573c-0.249-0.369-0.537-0.809-0.41-1.247c0.08-0.274,4.397-1.039,5.931-0.595c0.492,0.144,0.732,0.747,0.943,1.046
				L764.042,788.314z"/>
			<path fill="#FFFFFF" d="M785.071,846.989c-1.634-1.146,9.513-16.651,10.265-17.725c1.538-2.193,16.008-23.235,18.108-21.763
				l4.994,3.5c0.606,0.426,0.924,1.064,0.4,1.812c-0.654,0.933-5.345,4.049-13.896,16.152c-1.146,1.634-2.617,3.734-2.011,4.16
				c1.587,1.111,10.152-2.072,13.686-7.113c0.818-1.167,1.154-0.653,2.135,0.033l2.847,1.996c0.934,0.654,2.204,1.127,1.288,2.434
				c-4.515,6.441-12.547,7.076-13.201,8.01c-0.688,0.98,0.703,3.068,0.948,6.791c0.245,3.721-0.622,9.029-4.515,14.584
				c-0.981,1.4-1.771,0.639-2.938-0.179l-3.78-2.649c-1.261-0.884-1.713-1.131-0.713-2.658c4.468-6.474,5.065-13.781,3.665-14.763
				c-0.607-0.425-3.245-1.229-4.815,1.011c-3.991,5.694-4.95,9.546-5.539,10.387c-0.36,0.513-0.859,0.232-1.56-0.258
				L785.071,846.989z"/>
			<path fill="#FFFFFF" d="M833.159,863.301c7.424-5.396,17.981-7.642,23.812,0.382c5.831,8.023,0.434,17.371-6.99,22.766
				c-10.837,7.874-20.051,4.987-23.904-0.315S822.322,871.174,833.159,863.301z M846.978,879.893
				c3.644-2.646,7.869-7.691,4.552-12.256c-3.316-4.565-9.42-2.104-13.062,0.543c-3.689,2.682-8.074,7.7-4.69,12.357
				C837.161,885.194,843.289,882.573,846.978,879.893z"/>
		</g>
	</g>
	<g display="inline">
		<circle fill="none" cx="712.5" cy="968.499" r="141.142"/>
		<path d="M861.196,941.486c2.95-0.258,6.847,0.92,6.891,1.422c0.027,0.313-9.312,2.709-8.534,11.621
			c0.225,2.574,1.806,5.471,5.006,5.191c6.465-0.564,3.291-17.361,15.78-18.451c7.656-0.668,12.335,5.121,12.927,11.898
			c0.685,7.845-3.644,12.586-4.899,12.695c-1.192,0.104-6.582-2.967-6.708-4.41c-0.143-1.631,4.657-2.43,4.152-8.203
			c-0.169-1.945-1.278-4.506-3.161-4.341c-6.464,0.564-4.739,18.879-17.479,19.991c-8.158,0.712-13.395-5.66-14.052-13.191
			C850.538,949.057,853.854,942.127,861.196,941.486z"/>
		<path d="M871.741,973.742c15.121,1.938,21.546,11.273,20.473,19.646c-0.881,6.873-5.5,12.188-12.873,11.242
			c-13.435-1.723-8.043-21.482-14.542-22.315c-2.937-0.376-5.67,4.101-6.07,7.225c-1.313,10.247,6.497,11.249,6.385,12.123
			c-0.12,0.938-3.394,0.709-3.894,0.645c-7.936-1.018-11.712-7.726-10.75-15.224C851.903,975.898,861.744,972.461,871.741,973.742z
			 M876.846,982.971c-0.688-0.088-1.414,0.137-1.519,0.948c-0.097,0.75,0.945,12.443,4.132,12.852
			c3.062,0.393,5.117-2.266,5.422-4.64C885.529,987.069,880.47,983.436,876.846,982.971z"/>
		<path d="M868.85,1025.417c-0.323,1.826-0.518,3.296,1.438,4c3.022,1.089,5.754-1.476,6.693-4.084
			c2.177-6.045-3.24-6.991-2.771-8.295c0.684-1.896,3.742-3.139,6.29-2.221c4.386,1.58,5.459,7.523,3.495,12.976
			c-0.684,1.896-3.549,10.037-12.935,10.071c-3.886,0.007-21.471-6.193-23.545-6.94c-2.607-0.939-4.319-1.021-6.335-1.746
			c-1.244-0.448,0.644-6.062,2.544-11.337c5.145-14.283,12.856-12.644,16.412-11.362
			C867.605,1009.168,870.114,1018.374,868.85,1025.417z M857.154,1025.356c2.074,0.747,4.436,1.999,5.46-0.846
			c1.26-3.497-0.38-8.238-3.995-9.541c-3.319-1.195-6.32,1.005-7.452,4.146c-1.26,3.497,0.476,4.256,3.38,5.302L857.154,1025.356z"
			/>
		<path d="M836.328,1034.234c1.073-1.927,19.389,8.563,20.654,9.269c2.587,1.44,27.367,14.954,25.987,17.431l-2.912,5.229
			c-0.337,0.605-1.092,2.349-2.303,1.674c-0.33-0.184-6.968-6.91-20.673-14.543c-15.136-8.43-23.73-10.477-24.446-10.875
			c-0.936-0.521,0.137-1.799,0.474-2.404L836.328,1034.234z"/>
		<path d="M836.173,1071.805c7.109,7.234,11.289,18.409,3.47,26.093s-18.919,3.31-26.028-3.926
			c-10.377-10.56-8.726-21.104-3.559-26.183C815.224,1062.711,825.795,1061.244,836.173,1071.805z M820.29,1089.62
			c3.489,3.55,9.693,7.347,14.142,2.975c4.449-4.372,0.762-10.642-2.728-14.191c-3.532-3.595-9.734-7.569-14.273-3.109
			S816.758,1086.024,820.29,1089.62z"/>
		<path d="M793.199,1083.137c0.785-0.525,0.676-2.727,12.207,14.497c1.753,2.618,3.348,5.341,5.101,7.958
			c1.052,1.571,2.578,4.87,4.934,3.293c0.942-0.631,1.046-1.609,1.621-1.995c0.681-0.455,1.084,0.26,1.715,1.202
			c2.664,3.979,1.828,5.222-0.161,6.554c-2.356,1.577-0.008,5.084,0.836,7.931c1.179,3.912-0.7,8.127-3.423,9.949
			c-2.041,1.367-4.536,3.417-5.553,1.898c-0.525-0.785-3.332-6.337-2.442-6.933c0.733-0.49,1.258-0.159,1.834-0.545
			c1.466-0.981,1.023-3.794,0.217-4.998c-0.49-0.733-1.435-1.011-2.22-0.485c-0.681,0.456-1.134,1.139-1.814,1.594
			c-1.989,1.332-2.988-0.046-4.18-1.826c-0.49-0.733-1.822-2.723-0.723-3.459c0.419-0.28,1.781-0.51,2.724-1.141
			c2.879-1.928,0.391-5.418-0.976-7.459c-4.627-6.911-15.887-19.54-16.343-20.221c-0.771-1.151,0.103-1.433,1.045-2.063
			L793.199,1083.137z"/>
		<path d="M753.884,1102.455c6.779-1.958,14.442,2.32,17.975,14.548c4.005,13.862-3.011,24.087-8.337,25.625
			c-1.271,0.367-3.005-0.64-3.853-0.396c-1.211,0.35-0.763,2.582-0.483,3.55c1.417,4.903,3.56,6.646,4.224,8.945
			c0.245,0.848-1.269,1.285-1.873,1.46l-6.296,1.818c-2.724,0.787-10.315-26.401-11.138-29.246
			c-0.402-1.393-6.502-21.601-4.384-22.213L753.884,1102.455z M752.52,1127.246c3.077,10.654,4.922,10.908,7.161,10.261
			c2.603-0.752,7.556-5.855,4.373-16.872c-1.206-4.177-4.651-10.198-9.797-8.712C747.72,1113.812,751.261,1122.888,752.52,1127.246z
			"/>
		<path d="M730.529,1107.507c3.068-0.346,3.17-1.689,5.657,20.349c2.416,21.411,1.181,19.459-0.885,19.691l-3.443,0.389
			c-2.63,0.297-2.714,0.116-2.799-0.635c-0.261-2.316,0.229-4.718-0.541-11.542c-1.78-15.777-5.317-25.206-5.381-25.77
			c-0.226-2.003,1.694-1.839,3.135-2.002L730.529,1107.507z M738.698,1156.294c0.304,2.692-1.829,4.581-4.334,4.864
			c-2.504,0.282-5.004-1.084-5.308-3.776c-0.304-2.691,1.85-4.394,4.354-4.676C735.915,1152.424,738.394,1153.602,738.698,1156.294z
			"/>
		<path d="M718.938,1119.462c-0.143,2.958-1.835,6.661-2.339,6.637c-0.314-0.016-1.429-9.594-10.365-10.024
			c-2.58-0.125-5.664,1.051-5.818,4.261c-0.312,6.481,16.76,5.602,16.155,18.125c-0.371,7.677-6.737,11.532-13.534,11.204
			c-7.865-0.379-11.98-5.309-11.92-6.567c0.059-1.195,3.828-6.122,5.275-6.053c1.637,0.079,1.779,4.943,7.569,5.223
			c1.95,0.094,4.636-0.66,4.728-2.548c0.312-6.481-18.068-7.242-17.452-20.017c0.396-8.18,7.416-12.509,14.968-12.145
			C712.875,1107.88,719.294,1112.1,718.938,1119.462z"/>
		<path d="M668.436,1128.946c-1.846-0.173-3.327-0.247-3.87,1.76c-0.839,3.103,1.94,5.616,4.616,6.34
			c6.204,1.678,6.707-3.8,8.045-3.438c1.945,0.526,3.434,3.474,2.727,6.089c-1.218,4.501-7.056,6.056-12.651,4.542
			c-1.946-0.526-10.295-2.719-11.095-12.073c-0.322-3.873,4.425-21.909,5-24.037c0.725-2.677,0.665-4.39,1.225-6.457
			c0.346-1.277,6.096,0.146,11.508,1.61c14.658,3.965,13.652,11.786,12.666,15.436
			C684.533,1126.381,675.561,1129.633,668.436,1128.946z M667.543,1117.282c-0.576,2.129-1.631,4.585,1.288,5.375
			c3.589,0.97,8.182-1.051,9.185-4.762c0.922-3.405-1.516-6.219-4.739-7.091c-3.589-0.97-4.204,0.821-5.01,3.802L667.543,1117.282z"
			/>
		<path d="M657.117,1097.729c1.73,0.906,2.775,0.813-2.254,10.411l-8.596,16.405c-6.227,11.886-6.681,10.581-16.167,5.611
			c-12.5-6.549-12.555-14.046-9.456-19.961c4.561-8.704,17.688-12.992,21.985-10.741c1.005,0.526,1.362,2.421,1.7,3.949
			c0.367,1.472,0.537,2.912,0.928,3.117c0.558,0.292,0.916-0.8,1.443-1.805c2.046-3.906,3.324-8.926,3.646-9.539
			c0.467-0.893,1.58-0.168,2.194,0.154L657.117,1097.729z M628.061,1112.872c-1.9,3.627-0.258,7.688,3.257,9.53
			c2.958,1.549,5.195,2.437,11.013-8.668c1.022-1.953,2.137-4.214-0.374-5.529C636.99,1105.603,630.488,1108.241,628.061,1112.872z"
			/>
		<path d="M630.487,1082.66c1.494,1.259,2.533,1.394-4.451,9.68l-11.938,14.162c-8.648,10.261-8.81,8.889-17,1.986
			c-10.791-9.096-9.225-16.428-4.92-21.533c6.334-7.515,20.079-8.866,23.788-5.739c0.867,0.73,0.808,2.658,0.808,4.224
			c0.04,1.517-0.105,2.96,0.231,3.244c0.482,0.405,1.068-0.583,1.799-1.45c2.842-3.372,5.175-7.997,5.622-8.527
			c0.65-0.771,1.58,0.179,2.11,0.625L630.487,1082.66z M598.843,1091.171c-2.64,3.131-1.914,7.451,1.122,10.009
			c2.553,2.152,4.546,3.502,12.626-6.084c1.421-1.687,2.997-3.653,0.83-5.48C609.132,1086.001,602.213,1087.173,598.843,1091.171z"
			/>
		<path d="M607.281,1061.33c1.454,1.822,3.688,1.489-12.61,14.5c-13.639,10.888-16.378,13.719-17.527,12.38l-3.263-4.087
			c-0.59-0.739-1.543-1.429-0.647-2.225c0.66-0.688,1.517-1.533,0.731-2.519c-0.59-0.738-2.046-0.946-3.659-1.352
			c-1.564-0.444-3.295-0.997-4.356-2.327c-2.005-2.511-1.489-6.309,1.17-8.431c3.447-2.752,7.755-1.596,8.935-0.119
			c0.472,0.591-3.378,2.535-0.666,5.933c3.302,4.137,10.185-0.875,13.14-3.233c9.798-7.821,12.598-12.798,13.485-13.505
			c0.827-0.58,1.691,0.504,2.124,1.045L607.281,1061.33z"/>
		<path d="M576.8,1055.438c-9.033,4.613-20.946,5.251-25.933-4.512c-4.986-9.763,2.514-19.04,11.547-23.654
			c13.185-6.733,22.749-1.998,26.044,4.455C591.754,1038.179,589.985,1048.703,576.8,1055.438z M564.565,1034.945
			c-4.432,2.264-9.914,7.044-7.077,12.599s9.923,3.916,14.356,1.652c4.488-2.292,10.14-7.018,7.245-12.685
			C576.195,1030.845,569.054,1032.653,564.565,1034.945z"/>
		<path d="M534.619,1001.429c-0.546-2.137-0.656-2.564,2.823-3.454c25.635-6.556,39.887,3.91,40.402,5.925
			c0.359,1.403-6.757,16.294-34.589,23.412c-1.77,0.453-1.955,0.24-2.376-1.408l-1.202-4.699c-0.219-0.855-0.977-2.547,0.305-2.875
			c1.404-0.358,2.764-0.382,5.449-1.068c15.015-3.84,19.796-9.81,19.437-11.214c-0.546-2.136-9.923-3.965-21.825-0.921
			c-2.136,0.547-3.751,1.35-5.644,1.834c-1.404,0.358-1.438-0.283-1.75-1.504L534.619,1001.429z"/>
		<path d="M546.238,973.878c-0.379-1.814-0.745-3.251-2.822-3.179c-3.211,0.113-4.793,3.51-4.696,6.28
			c0.226,6.421,5.606,5.287,5.655,6.672c0.071,2.015-2.307,4.305-5.014,4.399c-4.659,0.164-7.865-4.955-8.068-10.748
			c-0.071-2.015-0.437-10.637,8.265-14.158c3.605-1.45,22.236-2.23,24.439-2.309c2.771-0.098,4.39-0.658,6.53-0.733
			c1.322-0.046,1.656,5.867,1.853,11.471c0.533,15.173-7.236,16.517-11.013,16.649C553.434,988.502,547.682,980.888,546.238,973.878
			z M557.119,969.588c-2.204,0.077-4.861-0.208-4.755,2.814c0.131,3.715,3.416,7.507,7.256,7.372
			c3.525-0.124,5.495-3.281,5.377-6.618c-0.13-3.715-2.024-3.774-5.109-3.666L557.119,969.588z"/>
		<path d="M573.119,953.578c-0.274,2.188-21.186-0.684-22.623-0.863c-2.938-0.368-30.977-3.625-30.625-6.438l0.744-5.938
			c0.086-0.688,0.133-2.587,1.509-2.414c0.375,0.047,9.049,3.799,24.615,5.748c17.192,2.152,25.929,0.834,26.742,0.936
			c1.062,0.133,0.546,1.72,0.46,2.407L573.119,953.578z"/>
	</g>
</g>
<g id="type_expanded">
	<g>
		<g>
			<circle fill="none" cx="712.5" cy="968.499" r="141.142"/>
			<path d="M563.254,859.459c1.269,0.87,3.168,4.246,3.732,4.634c0.846,0.58,1.571,0.731,2.055,0.027
				c0.419-0.611,0.571-1.337,0.99-1.947c1.225-1.786,2.526-0.962,4.124,0.134c0.658,0.451,2.444,1.677,1.767,2.664
				c-0.258,0.375-1.326,1.025-1.906,1.871c-1.773,2.585,1.234,4.648,5.417,7.518c12.501,8.576,16.375,7.363,17.174,7.912
				c0.705,0.482-0.403,7.74-1.145,8.821c-1.225,1.786-12.028-4.935-14.613-6.708c-5.781-3.965-7.843-5.795-8.736-6.407
				c-1.41-0.968-3.611-3.099-5.062-0.984c-0.581,0.847-0.339,1.703-0.693,2.22c-0.419,0.611-0.998,0.145-1.844-0.436
				c-3.572-2.45-3.286-3.774-2.061-5.561c0.129-0.188,0.543-0.388,0.801-0.764c1-1.457-1.207-3.178-2.69-4.541
				c-1.625-1.461,0.67-7.627,1.315-8.566C562.105,859.017,562.361,858.846,563.254,859.459z"/>
			<path d="M603.744,853.281c-8.567-10.812-6.828-20.917-0.841-25.66c4.915-3.895,11.265-4.417,15.441,0.855
				c7.611,9.605-8.368,18.994-4.687,23.641c1.664,2.1,6.263,0.928,8.497-0.842c7.327-5.806,2.902-11.391,3.527-11.886
				c0.67-0.531,2.646,1.686,2.929,2.043c4.496,5.675,2.701,12.405-2.66,16.653C617.953,864.422,609.408,860.43,603.744,853.281z
				 M606.271,844.079c0.39,0.491,1.002,0.806,1.583,0.346c0.536-0.425,7.251-8.655,5.446-10.934
				c-1.735-2.188-4.746-1.767-6.443-0.422C603.237,835.938,604.217,841.488,606.271,844.079z"/>
			<path d="M657.234,838.434c-1.977,0.736-2.319,2.751-8.916-14.926c-5.52-14.794-7.183-17.945-5.707-18.557l4.433-1.654
				c0.802-0.299,1.663-0.925,2.095,0.07c0.406,0.762,0.892,1.736,1.959,1.338c0.802-0.299,1.391-1.492,2.193-2.766
				c0.822-1.22,1.785-2.553,3.228-3.09c2.724-1.018,5.843,0.496,6.919,3.38c1.396,3.738-0.812,7.117-2.414,7.716
				c-0.641,0.238-1.229-3.619-4.913-2.244c-4.486,1.674-2.116,9.004-0.921,12.208c3.966,10.628,7.455,14.437,7.814,15.397
				c0.266,0.875-0.91,1.312-1.497,1.532L657.234,838.434z"/>
			<path d="M691.366,811.459c-0.635-13.781,6.681-20.966,14.312-21.318c6.264-0.288,11.723,2.998,12.032,9.719
				c0.564,12.242-17.89,10.525-17.617,16.447c0.123,2.677,4.54,4.414,7.388,4.282c9.339-0.431,9.011-7.549,9.809-7.585
				c0.854-0.04,1.161,2.914,1.183,3.369c0.333,7.232-5.057,11.646-11.89,11.961C696.389,828.805,691.786,820.57,691.366,811.459z
				 M698.794,805.467c0.029,0.627,0.343,1.24,1.083,1.206c0.684-0.032,10.942-2.787,10.809-5.691
				c-0.129-2.79-2.818-4.207-4.982-4.107C701.09,797.086,698.643,802.164,698.794,805.467z"/>
			<path d="M742.486,820.465c0.746-2.573,3.014-5.477,3.451-5.35c0.274,0.079-0.756,8.744,7.019,10.999
				c2.245,0.651,5.206,0.265,6.017-2.528c1.636-5.639-13.575-8.449-10.414-19.344c1.938-6.68,8.352-8.736,14.265-7.021
				c6.844,1.986,9.43,7.188,9.112,8.283c-0.302,1.04-4.654,4.585-5.914,4.22c-1.424-0.413-0.528-4.724-5.565-6.186
				c-1.697-0.492-4.219-0.394-4.695,1.249c-1.637,5.64,14.382,10.168,11.157,21.282c-2.064,7.118-9.153,9.453-15.723,7.548
				C745.392,831.933,740.628,826.871,742.486,820.465z M764.042,788.314c0.194,0.354,0.784,1.594,1.276,1.736
				c0.548,0.158,1.765-0.557,2.204-0.845l2.661-1.603c0.777-0.428,1.955-1.213,2.831-0.959c0.492,0.143,3.147,2.041,2.893,2.917
				c-0.19,0.657-1.179,1.2-1.744,1.512l-7.175,4.27c-1.64,0.948-1.971,1.269-3.777,0.744c-2.354-0.683-2.617-1.412-3.768-3.586
				l-4.213-7.573c-0.249-0.369-0.537-0.809-0.41-1.247c0.08-0.274,4.397-1.039,5.931-0.595c0.492,0.144,0.732,0.747,0.943,1.046
				L764.042,788.314z"/>
			<path d="M785.071,846.989c-1.634-1.146,9.513-16.651,10.265-17.725c1.538-2.193,16.008-23.235,18.108-21.763l4.994,3.5
				c0.606,0.426,0.924,1.064,0.4,1.812c-0.654,0.933-5.345,4.049-13.896,16.152c-1.146,1.634-2.617,3.734-2.011,4.16
				c1.587,1.111,10.152-2.072,13.686-7.113c0.818-1.167,1.154-0.653,2.135,0.033l2.847,1.996c0.934,0.654,2.204,1.127,1.288,2.434
				c-4.515,6.441-12.547,7.076-13.201,8.01c-0.688,0.98,0.703,3.068,0.948,6.791c0.245,3.721-0.622,9.029-4.515,14.584
				c-0.981,1.4-1.771,0.639-2.938-0.179l-3.78-2.649c-1.261-0.884-1.713-1.131-0.713-2.658c4.468-6.474,5.065-13.781,3.665-14.763
				c-0.607-0.425-3.245-1.229-4.815,1.011c-3.991,5.694-4.95,9.546-5.539,10.387c-0.36,0.513-0.859,0.232-1.56-0.258
				L785.071,846.989z"/>
			<path d="M833.159,863.301c7.424-5.396,17.981-7.642,23.812,0.382c5.831,8.023,0.434,17.371-6.99,22.766
				c-10.837,7.874-20.051,4.987-23.904-0.315S822.322,871.174,833.159,863.301z M846.978,879.893
				c3.644-2.646,7.869-7.691,4.552-12.256c-3.316-4.565-9.42-2.104-13.062,0.543c-3.689,2.682-8.074,7.7-4.69,12.357
				C837.161,885.194,843.289,882.573,846.978,879.893z"/>
		</g>
		<g>
			<circle fill="none" cx="712.5" cy="968.499" r="141.142"/>
			<path fill="none" stroke="#000000" stroke-width="11" d="M563.254,859.459c1.269,0.87,3.168,4.246,3.732,4.634
				c0.846,0.58,1.571,0.731,2.055,0.027c0.419-0.611,0.571-1.337,0.99-1.947c1.225-1.786,2.526-0.962,4.124,0.134
				c0.658,0.451,2.444,1.677,1.767,2.664c-0.258,0.375-1.326,1.025-1.906,1.871c-1.773,2.585,1.234,4.648,5.417,7.518
				c12.501,8.576,16.375,7.363,17.174,7.912c0.705,0.482-0.403,7.74-1.145,8.821c-1.225,1.786-12.028-4.935-14.613-6.708
				c-5.781-3.965-7.843-5.795-8.736-6.407c-1.41-0.968-3.611-3.099-5.062-0.984c-0.581,0.847-0.339,1.703-0.693,2.22
				c-0.419,0.611-0.998,0.145-1.844-0.436c-3.572-2.45-3.286-3.774-2.061-5.561c0.129-0.188,0.543-0.388,0.801-0.764
				c1-1.457-1.207-3.178-2.69-4.541c-1.625-1.461,0.67-7.627,1.315-8.566C562.105,859.017,562.361,858.846,563.254,859.459z"/>
			<path fill="none" stroke="#000000" stroke-width="11" d="M603.744,853.281c-8.567-10.812-6.828-20.917-0.841-25.66
				c4.915-3.895,11.265-4.417,15.441,0.855c7.611,9.605-8.368,18.994-4.687,23.641c1.664,2.1,6.263,0.928,8.497-0.842
				c7.327-5.806,2.902-11.391,3.527-11.886c0.67-0.531,2.646,1.686,2.929,2.043c4.496,5.675,2.701,12.405-2.66,16.653
				C617.953,864.422,609.408,860.43,603.744,853.281z M606.271,844.079c0.39,0.491,1.002,0.806,1.583,0.346
				c0.536-0.425,7.251-8.655,5.446-10.934c-1.735-2.188-4.746-1.767-6.443-0.422C603.237,835.938,604.217,841.488,606.271,844.079z"
				/>
			<path fill="none" stroke="#000000" stroke-width="11" d="M657.234,838.434c-1.977,0.736-2.319,2.751-8.916-14.926
				c-5.52-14.794-7.183-17.945-5.707-18.557l4.433-1.654c0.802-0.299,1.663-0.925,2.095,0.07c0.406,0.762,0.892,1.736,1.959,1.338
				c0.802-0.299,1.391-1.492,2.193-2.766c0.822-1.22,1.785-2.553,3.228-3.09c2.724-1.018,5.843,0.496,6.919,3.38
				c1.396,3.738-0.812,7.117-2.414,7.716c-0.641,0.238-1.229-3.619-4.913-2.244c-4.486,1.674-2.116,9.004-0.921,12.208
				c3.966,10.628,7.455,14.437,7.814,15.397c0.266,0.875-0.91,1.312-1.497,1.532L657.234,838.434z"/>
			<path fill="none" stroke="#000000" stroke-width="11" d="M691.366,811.459c-0.635-13.781,6.681-20.966,14.312-21.318
				c6.264-0.288,11.723,2.998,12.032,9.719c0.564,12.242-17.89,10.525-17.617,16.447c0.123,2.677,4.54,4.414,7.388,4.282
				c9.339-0.431,9.011-7.549,9.809-7.585c0.854-0.04,1.161,2.914,1.183,3.369c0.333,7.232-5.057,11.646-11.89,11.961
				C696.389,828.805,691.786,820.57,691.366,811.459z M698.794,805.467c0.029,0.627,0.343,1.24,1.083,1.206
				c0.684-0.032,10.942-2.787,10.809-5.691c-0.129-2.79-2.818-4.207-4.982-4.107C701.09,797.086,698.643,802.164,698.794,805.467z"
				/>
			<path fill="none" stroke="#000000" stroke-width="11" d="M742.486,820.465c0.746-2.573,3.014-5.477,3.451-5.35
				c0.274,0.079-0.756,8.744,7.019,10.999c2.245,0.651,5.206,0.265,6.017-2.528c1.636-5.639-13.575-8.449-10.414-19.344
				c1.938-6.68,8.352-8.736,14.265-7.021c6.844,1.986,9.43,7.188,9.112,8.283c-0.302,1.04-4.654,4.585-5.914,4.22
				c-1.424-0.413-0.528-4.724-5.565-6.186c-1.697-0.492-4.219-0.394-4.695,1.249c-1.637,5.64,14.382,10.168,11.157,21.282
				c-2.064,7.118-9.153,9.453-15.723,7.548C745.392,831.933,740.628,826.871,742.486,820.465z M764.042,788.314
				c0.194,0.354,0.784,1.594,1.276,1.736c0.548,0.158,1.765-0.557,2.204-0.845l2.661-1.603c0.777-0.428,1.955-1.213,2.831-0.959
				c0.492,0.143,3.147,2.041,2.893,2.917c-0.19,0.657-1.179,1.2-1.744,1.512l-7.175,4.27c-1.64,0.948-1.971,1.269-3.777,0.744
				c-2.354-0.683-2.617-1.412-3.768-3.586l-4.213-7.573c-0.249-0.369-0.537-0.809-0.41-1.247c0.08-0.274,4.397-1.039,5.931-0.595
				c0.492,0.144,0.732,0.747,0.943,1.046L764.042,788.314z"/>
			<path fill="none" stroke="#000000" stroke-width="11" d="M785.071,846.989c-1.634-1.146,9.513-16.651,10.265-17.725
				c1.538-2.193,16.008-23.235,18.108-21.763l4.994,3.5c0.606,0.426,0.924,1.064,0.4,1.812c-0.654,0.933-5.345,4.049-13.896,16.152
				c-1.146,1.634-2.617,3.734-2.011,4.16c1.587,1.111,10.152-2.072,13.686-7.113c0.818-1.167,1.154-0.653,2.135,0.033l2.847,1.996
				c0.934,0.654,2.204,1.127,1.288,2.434c-4.515,6.441-12.547,7.076-13.201,8.01c-0.688,0.98,0.703,3.068,0.948,6.791
				c0.245,3.721-0.622,9.029-4.515,14.584c-0.981,1.4-1.771,0.639-2.938-0.179l-3.78-2.649c-1.261-0.884-1.713-1.131-0.713-2.658
				c4.468-6.474,5.065-13.781,3.665-14.763c-0.607-0.425-3.245-1.229-4.815,1.011c-3.991,5.694-4.95,9.546-5.539,10.387
				c-0.36,0.513-0.859,0.232-1.56-0.258L785.071,846.989z"/>
			<path fill="none" stroke="#000000" stroke-width="11" d="M833.159,863.301c7.424-5.396,17.981-7.642,23.812,0.382
				c5.831,8.023,0.434,17.371-6.99,22.766c-10.837,7.874-20.051,4.987-23.904-0.315S822.322,871.174,833.159,863.301z
				 M846.978,879.893c3.644-2.646,7.869-7.691,4.552-12.256c-3.316-4.565-9.42-2.104-13.062,0.543
				c-3.689,2.682-8.074,7.7-4.69,12.357C837.161,885.194,843.289,882.573,846.978,879.893z"/>
		</g>
		<g>
			<path fill="#FFFFFF" d="M563.254,859.459c1.269,0.87,3.168,4.246,3.732,4.634c0.846,0.58,1.571,0.731,2.055,0.027
				c0.419-0.611,0.571-1.337,0.99-1.947c1.225-1.786,2.526-0.962,4.124,0.134c0.658,0.451,2.444,1.677,1.767,2.664
				c-0.258,0.375-1.326,1.025-1.906,1.871c-1.773,2.585,1.234,4.648,5.417,7.518c12.501,8.576,16.375,7.363,17.174,7.912
				c0.705,0.482-0.403,7.74-1.145,8.821c-1.225,1.786-12.028-4.935-14.613-6.708c-5.781-3.965-7.843-5.795-8.736-6.407
				c-1.41-0.968-3.611-3.099-5.062-0.984c-0.581,0.847-0.339,1.703-0.693,2.22c-0.419,0.611-0.998,0.145-1.844-0.436
				c-3.572-2.45-3.286-3.774-2.061-5.561c0.129-0.188,0.543-0.388,0.801-0.764c1-1.457-1.207-3.178-2.69-4.541
				c-1.625-1.461,0.67-7.627,1.315-8.566C562.105,859.017,562.361,858.846,563.254,859.459z"/>
			<path fill="#FFFFFF" d="M603.744,853.281c-8.567-10.812-6.828-20.917-0.841-25.66c4.915-3.895,11.265-4.417,15.441,0.855
				c7.611,9.605-8.368,18.994-4.687,23.641c1.664,2.1,6.263,0.928,8.497-0.842c7.327-5.806,2.902-11.391,3.527-11.886
				c0.67-0.531,2.646,1.686,2.929,2.043c4.496,5.675,2.701,12.405-2.66,16.653C617.953,864.422,609.408,860.43,603.744,853.281z
				 M606.271,844.079c0.39,0.491,1.002,0.806,1.583,0.346c0.536-0.425,7.251-8.655,5.446-10.934
				c-1.735-2.188-4.746-1.767-6.443-0.422C603.237,835.938,604.217,841.488,606.271,844.079z"/>
			<path fill="#FFFFFF" d="M657.234,838.434c-1.977,0.736-2.319,2.751-8.916-14.926c-5.52-14.794-7.183-17.945-5.707-18.557
				l4.433-1.654c0.802-0.299,1.663-0.925,2.095,0.07c0.406,0.762,0.892,1.736,1.959,1.338c0.802-0.299,1.391-1.492,2.193-2.766
				c0.822-1.22,1.785-2.553,3.228-3.09c2.724-1.018,5.843,0.496,6.919,3.38c1.396,3.738-0.812,7.117-2.414,7.716
				c-0.641,0.238-1.229-3.619-4.913-2.244c-4.486,1.674-2.116,9.004-0.921,12.208c3.966,10.628,7.455,14.437,7.814,15.397
				c0.266,0.875-0.91,1.312-1.497,1.532L657.234,838.434z"/>
			<path fill="#FFFFFF" d="M691.366,811.459c-0.635-13.781,6.681-20.966,14.312-21.318c6.264-0.288,11.723,2.998,12.032,9.719
				c0.564,12.242-17.89,10.525-17.617,16.447c0.123,2.677,4.54,4.414,7.388,4.282c9.339-0.431,9.011-7.549,9.809-7.585
				c0.854-0.04,1.161,2.914,1.183,3.369c0.333,7.232-5.057,11.646-11.89,11.961C696.389,828.805,691.786,820.57,691.366,811.459z
				 M698.794,805.467c0.029,0.627,0.343,1.24,1.083,1.206c0.684-0.032,10.942-2.787,10.809-5.691
				c-0.129-2.79-2.818-4.207-4.982-4.107C701.09,797.086,698.643,802.164,698.794,805.467z"/>
			<path fill="#FFFFFF" d="M742.486,820.465c0.746-2.573,3.014-5.477,3.451-5.35c0.274,0.079-0.756,8.744,7.019,10.999
				c2.245,0.651,5.206,0.265,6.017-2.528c1.636-5.639-13.575-8.449-10.414-19.344c1.938-6.68,8.352-8.736,14.265-7.021
				c6.844,1.986,9.43,7.188,9.112,8.283c-0.302,1.04-4.654,4.585-5.914,4.22c-1.424-0.413-0.528-4.724-5.565-6.186
				c-1.697-0.492-4.219-0.394-4.695,1.249c-1.637,5.64,14.382,10.168,11.157,21.282c-2.064,7.118-9.153,9.453-15.723,7.548
				C745.392,831.933,740.628,826.871,742.486,820.465z M764.042,788.314c0.194,0.354,0.784,1.594,1.276,1.736
				c0.548,0.158,1.765-0.557,2.204-0.845l2.661-1.603c0.777-0.428,1.955-1.213,2.831-0.959c0.492,0.143,3.147,2.041,2.893,2.917
				c-0.19,0.657-1.179,1.2-1.744,1.512l-7.175,4.27c-1.64,0.948-1.971,1.269-3.777,0.744c-2.354-0.683-2.617-1.412-3.768-3.586
				l-4.213-7.573c-0.249-0.369-0.537-0.809-0.41-1.247c0.08-0.274,4.397-1.039,5.931-0.595c0.492,0.144,0.732,0.747,0.943,1.046
				L764.042,788.314z"/>
			<path fill="#FFFFFF" d="M785.071,846.989c-1.634-1.146,9.513-16.651,10.265-17.725c1.538-2.193,16.008-23.235,18.108-21.763
				l4.994,3.5c0.606,0.426,0.924,1.064,0.4,1.812c-0.654,0.933-5.345,4.049-13.896,16.152c-1.146,1.634-2.617,3.734-2.011,4.16
				c1.587,1.111,10.152-2.072,13.686-7.113c0.818-1.167,1.154-0.653,2.135,0.033l2.847,1.996c0.934,0.654,2.204,1.127,1.288,2.434
				c-4.515,6.441-12.547,7.076-13.201,8.01c-0.688,0.98,0.703,3.068,0.948,6.791c0.245,3.721-0.622,9.029-4.515,14.584
				c-0.981,1.4-1.771,0.639-2.938-0.179l-3.78-2.649c-1.261-0.884-1.713-1.131-0.713-2.658c4.468-6.474,5.065-13.781,3.665-14.763
				c-0.607-0.425-3.245-1.229-4.815,1.011c-3.991,5.694-4.95,9.546-5.539,10.387c-0.36,0.513-0.859,0.232-1.56-0.258
				L785.071,846.989z"/>
			<path fill="#FFFFFF" d="M833.159,863.301c7.424-5.396,17.981-7.642,23.812,0.382c5.831,8.023,0.434,17.371-6.99,22.766
				c-10.837,7.874-20.051,4.987-23.904-0.315S822.322,871.174,833.159,863.301z M846.978,879.893
				c3.644-2.646,7.869-7.691,4.552-12.256c-3.316-4.565-9.42-2.104-13.062,0.543c-3.689,2.682-8.074,7.7-4.69,12.357
				C837.161,885.194,843.289,882.573,846.978,879.893z"/>
		</g>
	</g>
	<g>
		<path d="M861.196,941.486c2.95-0.258,6.847,0.92,6.891,1.422c0.027,0.313-9.312,2.709-8.534,11.621
			c0.225,2.574,1.806,5.471,5.006,5.191c6.465-0.564,3.291-17.361,15.78-18.451c7.656-0.668,12.335,5.121,12.927,11.898
			c0.685,7.845-3.644,12.586-4.899,12.695c-1.192,0.104-6.582-2.967-6.708-4.41c-0.143-1.631,4.657-2.43,4.152-8.203
			c-0.169-1.945-1.278-4.506-3.161-4.341c-6.464,0.564-4.739,18.879-17.479,19.991c-8.158,0.712-13.395-5.66-14.052-13.191
			C850.538,949.057,853.854,942.127,861.196,941.486z"/>
		<path d="M871.741,973.742c15.121,1.938,21.546,11.273,20.473,19.646c-0.881,6.873-5.5,12.188-12.873,11.242
			c-13.435-1.723-8.043-21.482-14.542-22.315c-2.937-0.376-5.67,4.101-6.07,7.225c-1.313,10.247,6.497,11.249,6.385,12.123
			c-0.12,0.938-3.394,0.709-3.894,0.645c-7.936-1.018-11.712-7.726-10.75-15.224C851.903,975.898,861.744,972.461,871.741,973.742z
			 M876.846,982.971c-0.688-0.088-1.414,0.137-1.519,0.948c-0.097,0.75,0.945,12.443,4.132,12.852
			c3.062,0.393,5.117-2.266,5.422-4.64C885.529,987.069,880.47,983.436,876.846,982.971z"/>
		<path d="M868.85,1025.417c-0.323,1.826-0.518,3.296,1.438,4c3.022,1.089,5.754-1.476,6.693-4.084
			c2.177-6.045-3.24-6.991-2.771-8.295c0.684-1.896,3.742-3.139,6.29-2.221c4.386,1.58,5.459,7.523,3.495,12.976
			c-0.684,1.896-3.549,10.037-12.935,10.071c-3.886,0.007-21.471-6.193-23.545-6.94c-2.607-0.939-4.319-1.021-6.335-1.746
			c-1.244-0.448,0.644-6.062,2.544-11.337c5.145-14.283,12.856-12.644,16.412-11.362
			C867.605,1009.168,870.114,1018.374,868.85,1025.417z M857.154,1025.356c2.074,0.747,4.436,1.999,5.46-0.846
			c1.26-3.497-0.38-8.238-3.995-9.541c-3.319-1.195-6.32,1.005-7.452,4.146c-1.26,3.497,0.476,4.256,3.38,5.302L857.154,1025.356z"
			/>
		<path d="M836.328,1034.234c1.073-1.927,19.389,8.563,20.654,9.269c2.587,1.44,27.367,14.954,25.987,17.431l-2.912,5.229
			c-0.337,0.605-1.092,2.349-2.303,1.674c-0.33-0.184-6.968-6.91-20.673-14.543c-15.136-8.43-23.73-10.477-24.446-10.875
			c-0.936-0.521,0.137-1.799,0.474-2.404L836.328,1034.234z"/>
		<path d="M836.173,1071.805c7.109,7.234,11.289,18.409,3.47,26.093s-18.919,3.31-26.028-3.926
			c-10.377-10.56-8.726-21.104-3.559-26.183C815.224,1062.711,825.795,1061.244,836.173,1071.805z M820.29,1089.62
			c3.489,3.55,9.693,7.347,14.142,2.975c4.449-4.372,0.762-10.642-2.728-14.191c-3.532-3.595-9.734-7.569-14.273-3.109
			S816.758,1086.024,820.29,1089.62z"/>
		<path d="M793.199,1083.137c0.785-0.525,0.676-2.727,12.207,14.497c1.753,2.618,3.348,5.341,5.101,7.958
			c1.052,1.571,2.578,4.87,4.934,3.293c0.942-0.631,1.046-1.609,1.621-1.995c0.681-0.455,1.084,0.26,1.715,1.202
			c2.664,3.979,1.828,5.222-0.161,6.554c-2.356,1.577-0.008,5.084,0.836,7.931c1.179,3.912-0.7,8.127-3.423,9.949
			c-2.041,1.367-4.536,3.417-5.553,1.898c-0.525-0.785-3.332-6.337-2.442-6.933c0.733-0.49,1.258-0.159,1.834-0.545
			c1.466-0.981,1.023-3.794,0.217-4.998c-0.49-0.733-1.435-1.011-2.22-0.485c-0.681,0.456-1.134,1.139-1.814,1.594
			c-1.989,1.332-2.988-0.046-4.18-1.826c-0.49-0.733-1.822-2.723-0.723-3.459c0.419-0.28,1.781-0.51,2.724-1.141
			c2.879-1.928,0.391-5.418-0.976-7.459c-4.627-6.911-15.887-19.54-16.343-20.221c-0.771-1.151,0.103-1.433,1.045-2.063
			L793.199,1083.137z"/>
		<path d="M753.884,1102.455c6.779-1.958,14.442,2.32,17.975,14.548c4.005,13.862-3.011,24.087-8.337,25.625
			c-1.271,0.367-3.005-0.64-3.853-0.396c-1.211,0.35-0.763,2.582-0.483,3.55c1.417,4.903,3.56,6.646,4.224,8.945
			c0.245,0.848-1.269,1.285-1.873,1.46l-6.296,1.818c-2.724,0.787-10.315-26.401-11.138-29.246
			c-0.402-1.393-6.502-21.601-4.384-22.213L753.884,1102.455z M752.52,1127.246c3.077,10.654,4.922,10.908,7.161,10.261
			c2.603-0.752,7.556-5.855,4.373-16.872c-1.206-4.177-4.651-10.198-9.797-8.712C747.72,1113.812,751.261,1122.888,752.52,1127.246z
			"/>
		<path d="M730.529,1107.507c3.068-0.346,3.17-1.689,5.657,20.349c2.416,21.411,1.181,19.459-0.885,19.691l-3.443,0.389
			c-2.63,0.297-2.714,0.116-2.799-0.635c-0.261-2.316,0.229-4.718-0.541-11.542c-1.78-15.777-5.317-25.206-5.381-25.77
			c-0.226-2.003,1.694-1.839,3.135-2.002L730.529,1107.507z M738.698,1156.294c0.304,2.692-1.829,4.581-4.334,4.864
			c-2.504,0.282-5.004-1.084-5.308-3.776c-0.304-2.691,1.85-4.394,4.354-4.676C735.915,1152.424,738.394,1153.602,738.698,1156.294z
			"/>
		<path d="M718.938,1119.462c-0.143,2.958-1.835,6.661-2.339,6.637c-0.314-0.016-1.429-9.594-10.365-10.024
			c-2.58-0.125-5.664,1.051-5.818,4.261c-0.312,6.481,16.76,5.602,16.155,18.125c-0.371,7.677-6.737,11.532-13.534,11.204
			c-7.865-0.379-11.98-5.309-11.92-6.567c0.059-1.195,3.828-6.122,5.275-6.053c1.637,0.079,1.779,4.943,7.569,5.223
			c1.95,0.094,4.636-0.66,4.728-2.548c0.312-6.481-18.068-7.242-17.452-20.017c0.396-8.18,7.416-12.509,14.968-12.145
			C712.875,1107.88,719.294,1112.1,718.938,1119.462z"/>
		<path d="M668.436,1128.946c-1.846-0.173-3.327-0.247-3.87,1.76c-0.839,3.103,1.94,5.616,4.616,6.34
			c6.204,1.678,6.707-3.8,8.045-3.438c1.945,0.526,3.434,3.474,2.727,6.089c-1.218,4.501-7.056,6.056-12.651,4.542
			c-1.946-0.526-10.295-2.719-11.095-12.073c-0.322-3.873,4.425-21.909,5-24.037c0.725-2.677,0.665-4.39,1.225-6.457
			c0.346-1.277,6.096,0.146,11.508,1.61c14.658,3.965,13.652,11.786,12.666,15.436
			C684.533,1126.381,675.561,1129.633,668.436,1128.946z M667.543,1117.282c-0.576,2.129-1.631,4.585,1.288,5.375
			c3.589,0.97,8.182-1.051,9.185-4.762c0.922-3.405-1.516-6.219-4.739-7.091c-3.589-0.97-4.204,0.821-5.01,3.802L667.543,1117.282z"
			/>
		<path d="M657.117,1097.729c1.73,0.906,2.775,0.813-2.254,10.411l-8.596,16.405c-6.227,11.886-6.681,10.581-16.167,5.611
			c-12.5-6.549-12.555-14.046-9.456-19.961c4.561-8.704,17.688-12.992,21.985-10.741c1.005,0.526,1.362,2.421,1.7,3.949
			c0.367,1.472,0.537,2.912,0.928,3.117c0.558,0.292,0.916-0.8,1.443-1.805c2.046-3.906,3.324-8.926,3.646-9.539
			c0.467-0.893,1.58-0.168,2.194,0.154L657.117,1097.729z M628.061,1112.872c-1.9,3.627-0.258,7.688,3.257,9.53
			c2.958,1.549,5.195,2.437,11.013-8.668c1.022-1.953,2.137-4.214-0.374-5.529C636.99,1105.603,630.488,1108.241,628.061,1112.872z"
			/>
		<path d="M630.487,1082.66c1.494,1.259,2.533,1.394-4.451,9.68l-11.938,14.162c-8.648,10.261-8.81,8.889-17,1.986
			c-10.791-9.096-9.225-16.428-4.92-21.533c6.334-7.515,20.079-8.866,23.788-5.739c0.867,0.73,0.808,2.658,0.808,4.224
			c0.04,1.517-0.105,2.96,0.231,3.244c0.482,0.405,1.068-0.583,1.799-1.45c2.842-3.372,5.175-7.997,5.622-8.527
			c0.65-0.771,1.58,0.179,2.11,0.625L630.487,1082.66z M598.843,1091.171c-2.64,3.131-1.914,7.451,1.122,10.009
			c2.553,2.152,4.546,3.502,12.626-6.084c1.421-1.687,2.997-3.653,0.83-5.48C609.132,1086.001,602.213,1087.173,598.843,1091.171z"
			/>
		<path d="M607.281,1061.33c1.454,1.822,3.688,1.489-12.61,14.5c-13.639,10.888-16.378,13.719-17.527,12.38l-3.263-4.087
			c-0.59-0.739-1.543-1.429-0.647-2.225c0.66-0.688,1.517-1.533,0.731-2.519c-0.59-0.738-2.046-0.946-3.659-1.352
			c-1.564-0.444-3.295-0.997-4.356-2.327c-2.005-2.511-1.489-6.309,1.17-8.431c3.447-2.752,7.755-1.596,8.935-0.119
			c0.472,0.591-3.378,2.535-0.666,5.933c3.302,4.137,10.185-0.875,13.14-3.233c9.798-7.821,12.598-12.798,13.485-13.505
			c0.827-0.58,1.691,0.504,2.124,1.045L607.281,1061.33z"/>
		<path d="M576.8,1055.438c-9.033,4.613-20.946,5.251-25.933-4.512c-4.986-9.763,2.514-19.04,11.547-23.654
			c13.185-6.733,22.749-1.998,26.044,4.455C591.754,1038.179,589.985,1048.703,576.8,1055.438z M564.565,1034.945
			c-4.432,2.264-9.914,7.044-7.077,12.599s9.923,3.916,14.356,1.652c4.488-2.292,10.14-7.018,7.245-12.685
			C576.195,1030.845,569.054,1032.653,564.565,1034.945z"/>
		<path d="M534.619,1001.429c-0.546-2.137-0.656-2.564,2.823-3.454c25.635-6.556,39.887,3.91,40.402,5.925
			c0.359,1.403-6.757,16.294-34.589,23.412c-1.77,0.453-1.955,0.24-2.376-1.408l-1.202-4.699c-0.219-0.855-0.977-2.547,0.305-2.875
			c1.404-0.358,2.764-0.382,5.449-1.068c15.015-3.84,19.796-9.81,19.437-11.214c-0.546-2.136-9.923-3.965-21.825-0.921
			c-2.136,0.547-3.751,1.35-5.644,1.834c-1.404,0.358-1.438-0.283-1.75-1.504L534.619,1001.429z"/>
		<path d="M546.238,973.878c-0.379-1.814-0.745-3.251-2.822-3.179c-3.211,0.113-4.793,3.51-4.696,6.28
			c0.226,6.421,5.606,5.287,5.655,6.672c0.071,2.015-2.307,4.305-5.014,4.399c-4.659,0.164-7.865-4.955-8.068-10.748
			c-0.071-2.015-0.437-10.637,8.265-14.158c3.605-1.45,22.236-2.23,24.439-2.309c2.771-0.098,4.39-0.658,6.53-0.733
			c1.322-0.046,1.656,5.867,1.853,11.471c0.533,15.173-7.236,16.517-11.013,16.649C553.434,988.502,547.682,980.888,546.238,973.878
			z M557.119,969.588c-2.204,0.077-4.861-0.208-4.755,2.814c0.131,3.715,3.416,7.507,7.256,7.372
			c3.525-0.124,5.495-3.281,5.377-6.618c-0.13-3.715-2.024-3.774-5.109-3.666L557.119,969.588z"/>
		<path d="M573.119,953.578c-0.274,2.188-21.186-0.684-22.623-0.863c-2.938-0.368-30.977-3.625-30.625-6.438l0.744-5.938
			c0.086-0.688,0.133-2.587,1.509-2.414c0.375,0.047,9.049,3.799,24.615,5.748c17.192,2.152,25.929,0.834,26.742,0.936
			c1.062,0.133,0.546,1.72,0.46,2.407L573.119,953.578z"/>
	</g>
</g>
</svg>
